<?xml version="1.0" standalone="no"?>
<!DOCTYPE svg PUBLIC "-//W3C//DTD SVG 20010904//EN"
 "http://www.w3.org/TR/2001/REC-SVG-20010904/DTD/svg10.dtd">
<svg version="1.0" xmlns="http://www.w3.org/2000/svg"
 width="96.000000pt" height="96.000000pt" viewBox="0 0 96.000000 96.000000"
 preserveAspectRatio="xMidYMid meet">
<metadata>
Created by potrace 1.14, written by Peter Selinger 2001-2017
</metadata>
<g transform="translate(0.000000,96.000000) scale(0.100000,-0.100000)"
fill="#000000" stroke="none">
<path d="M459 928 c0 -13 -2 -104 -3 -203 -4 -184 -11 -228 -54 -315 -13 -28
-24 -36 -49 -38 -27 -3 -35 1 -45 24 -11 24 -10 29 16 51 27 23 28 27 22 81
-18 166 -39 222 -105 286 -34 33 -42 37 -56 26 -13 -11 -15 -52 -13 -319 l3
-306 59 -3 c64 -3 87 8 67 31 -7 9 -26 14 -46 12 l-35 -2 0 261 c0 261 0 261
20 236 30 -38 45 -91 56 -196 5 -43 2 -56 -20 -89 -19 -27 -24 -45 -20 -64 9
-36 41 -69 76 -76 26 -6 28 -10 25 -38 -2 -18 0 -52 5 -77 10 -53 97 -200 118
-200 15 0 102 135 115 178 3 12 6 47 6 77 0 30 3 55 7 56 49 5 89 38 95 79 5
27 -13 69 -36 88 -13 11 -12 26 4 112 15 84 48 170 65 170 2 0 4 -116 4 -258
l0 -258 -40 1 c-43 1 -64 -12 -51 -33 5 -9 28 -12 72 -10 l64 3 3 311 c2 284
1 312 -15 318 -11 5 -28 -4 -51 -26 -67 -65 -91 -128 -107 -285 -7 -60 -6 -63
21 -86 26 -22 27 -27 16 -51 -18 -40 -69 -33 -93 11 -42 74 -51 132 -55 323
-1 102 -3 193 -3 203 -1 27 -41 22 -42 -5z m48 -515 l22 -57 -23 -21 -23 -21
-26 20 -26 21 22 57 c12 32 24 58 27 58 3 0 15 -26 27 -57z m-52 -174 c2 -19
4 -42 4 -51 1 -11 9 -18 21 -18 12 0 20 7 21 18 3 65 8 84 24 102 47 52 45
-50 -3 -142 -19 -38 -37 -68 -41 -68 -7 0 -54 75 -66 105 -10 24 -15 106 -8
119 10 16 45 -32 48 -65z"/>
</g>
</svg>
