<svg width="215" height="70" viewBox="0 0 215 70" fill="none" xmlns="http://www.w3.org/2000/svg">
    <path d="M40.4179 56.6464V42.2996H28.2878V56.6525H19.0111L30.2595 67.9637C32.5189 70.2357 36.1806 70.2357 38.4401 67.9637L49.6884 56.6525H40.4179V56.6464ZM12.9491 50.5505V19.6958L1.69463 31.0069C-0.564837 33.279 -0.564837 36.9611 1.69463 39.2332L12.9491 50.5505ZM28.2878 13.6V27.9467H40.4179V13.6H49.6946L38.4462 2.28267C36.1867 0.0105932 32.525 0.0105932 30.2656 2.28267L19.0111 13.6H28.2878ZM67.011 31.0069L55.7627 19.6958V50.5505L67.011 39.2394C69.2705 36.9673 69.2705 33.279 67.011 31.0069Z" fill="#DA292B"/>
    <path d="M97.0454 16.5802H88.9015V10.8476C88.9015 9.33908 87.7932 8.23074 86.2992 8.23074H83.856H82.3926H79.135V14.2896H82.3926V31.1547H88.9077V22.7991H97.0515V31.1486H103.567V8.23074H97.0515V16.5802H97.0454Z" fill="#DA292B"/>
    <path d="M118.544 7.90439C111.674 7.90439 106.659 12.8796 106.659 19.6958C106.659 26.512 111.674 31.4872 118.544 31.4872C125.414 31.4872 130.429 26.512 130.429 19.6958C130.429 12.8796 125.414 7.90439 118.544 7.90439ZM118.544 25.0958C115.452 25.0958 113.168 22.8053 113.168 19.6896C113.168 16.574 115.446 14.2835 118.544 14.2835C121.642 14.2835 123.92 16.574 123.92 19.6896C123.92 22.8053 121.636 25.0958 118.544 25.0958Z" fill="#DA292B"/>
    <path d="M150.581 19.0308C152.191 18.0395 153.195 16.3524 153.195 14.3204C153.195 10.7861 150.918 8.23074 146.386 8.23074H133.521V31.1547H146.386C151.144 31.1547 153.912 28.3716 153.912 24.5417C153.912 22.0787 152.614 20.0899 150.581 19.0308ZM139.577 13.3352H144.427C145.958 13.3352 146.839 14.0864 146.839 15.3672C146.839 16.6479 145.958 17.3991 144.427 17.3991H139.577V13.3352ZM144.886 26.1118H139.577V21.8509H144.886C146.515 21.8509 147.427 22.6391 147.427 23.9814C147.427 25.3237 146.515 26.1118 144.886 26.1118Z" fill="#DA292B"/>
    <path d="M163.874 8.23074L154.885 31.1547H161.823L163.268 26.9308H172.422L173.867 31.1547H180.934L171.945 8.23074H163.874ZM165.032 21.7893L167.603 14.2896H168.099L170.671 21.7893H165.032Z" fill="#DA292B"/>
    <path d="M101.081 38.4205H99.3539H97.174H89.0301H85.3807H83.9785H82.515H79.2574V44.4793H82.515V61.3445H89.0301V44.4793H97.174V61.3445H103.689V41.0435C103.689 39.3749 102.74 38.4205 101.081 38.4205Z" fill="#DA292B"/>
    <path d="M118.667 38.0941C111.796 38.0941 106.781 43.0693 106.781 49.8855C106.781 56.7018 111.796 61.6769 118.667 61.6769C125.537 61.6769 130.552 56.7018 130.552 49.8855C130.552 43.0693 125.537 38.0941 118.667 38.0941ZM118.667 55.2856C115.574 55.2856 113.29 52.995 113.29 49.8794C113.29 46.7699 115.568 44.4732 118.667 44.4732C121.765 44.4732 124.043 46.7637 124.043 49.8794C124.043 52.995 121.759 55.2856 118.667 55.2856Z" fill="#DA292B"/>
    <path d="M159.049 55.2856H152.865V38.4205H146.35V55.2856H140.159V38.4205H133.65V61.3445H136.712H140.159H159.049H163.09H165.564V38.4205H159.049V55.2856Z" fill="#DA292B"/>
    <path d="M190.804 44.4793V38.4205H168.656V44.4793H176.47V61.3445H182.985V44.4793H190.804Z" fill="#DA292B"/>
    <path d="M207.833 61.3445H214.899L205.91 38.4205H197.834L188.845 61.3445H195.782L197.227 57.1205H206.382L207.833 61.3445ZM198.991 51.9791L201.563 44.4793H202.059L204.63 51.9791H198.991Z" fill="#DA292B"/>
</svg>
