<svg width="40" height="40" viewBox="0 0 40 40" fill="none" xmlns="http://www.w3.org/2000/svg">
<path fill-rule="evenodd" clip-rule="evenodd" d="M20 40C31.0457 40 40 31.0457 40 20C40 8.95432 31.0457 0 20 0C8.95432 0 0 8.95432 0 20C0 31.0457 8.95432 40 20 40ZM26.1732 14.0482C26.3018 14.131 26.4344 14.2075 26.5707 14.2773C27.4574 14.7151 28.3235 14.8485 28.75 14.8027V18.2124C28.75 18.2124 27.5327 18.1625 26.6292 17.925C25.3698 17.5912 24.5626 17.0789 24.5626 17.0789C24.5626 17.0789 24.0023 16.7117 23.9603 16.6867V23.7331C23.9603 24.1248 23.8555 25.1047 23.5417 25.9216C23.2668 26.6203 22.8735 27.2675 22.3792 27.8354C22.3792 27.8354 21.6051 28.7857 20.2457 29.4237C19.1119 29.9557 18.1035 29.9847 17.7036 29.9963C17.6711 29.9973 17.6426 29.998 17.6184 29.9989C17.6184 29.9989 15.7571 30.0731 14.0784 28.9432L14.07 28.9349V28.9432C13.5024 28.5509 12.9963 28.078 12.5679 27.5395C12.0366 26.8683 11.7107 26.0721 11.6265 25.8388V25.8305C11.4928 25.4343 11.2122 24.4756 11.2543 23.5501C11.3211 21.9199 11.8734 20.9152 12.0198 20.6653C12.4045 19.9799 12.907 19.366 13.5046 18.8516C14.1868 18.2852 14.9799 17.865 15.8343 17.6175C16.6885 17.37 17.5853 17.3004 18.4681 17.4133L18.4639 20.9106C18.1731 20.8168 17.8691 20.7692 17.5633 20.7695C15.9476 20.7695 14.6382 22.0744 14.6382 23.6859C14.6382 25.2975 15.9476 26.6025 17.5633 26.6025C18.0663 26.6031 18.5609 26.4738 18.9981 26.2276C19.4176 25.9914 19.7721 25.6569 20.0304 25.2531C20.2888 24.8495 20.443 24.3892 20.4795 23.9127V23.9052C20.4816 23.8951 20.4816 23.8852 20.4816 23.8756C20.4829 23.8522 20.485 23.8322 20.485 23.8106C20.4926 23.6365 20.4926 23.4602 20.4926 23.2819V10H23.9603C23.9548 10 23.9186 10.3291 24.0061 10.8379H24.0019C24.1067 11.4508 24.391 12.3262 25.1524 13.1889C25.4566 13.5149 25.7994 13.8034 26.1732 14.0482Z" fill="#859578"/>
</svg>
