<svg width="40" height="40" viewBox="0 0 40 40" fill="none" xmlns="http://www.w3.org/2000/svg">
<path fill-rule="evenodd" clip-rule="evenodd" d="M20 40C31.0457 40 40 31.0457 40 20C40 8.95429 31.0457 0 20 0C8.95431 0 0 8.95429 0 20C0 31.0457 8.95431 40 20 40ZM22.2836 27.7792C23.9988 28.7372 25.1441 29.0321 25.9595 29.0321C26.3861 29.0367 26.8082 28.9443 27.1938 28.7619C27.9449 28.4123 28.3948 27.8982 28.8388 27.2342C29.0879 26.8568 29.3017 26.4572 29.4775 26.0406C29.4853 26.0223 29.4929 26.0048 29.5003 25.988C29.51 25.9661 29.5193 25.9454 29.528 25.9258L29.5311 25.9189C29.6234 25.7101 29.7603 25.4006 29.6116 25.007C29.5117 24.7426 29.3075 24.5071 28.9411 24.1379C28.188 23.3782 26.4708 22.3546 25.7189 21.9754L25.7127 21.9722C25.1399 21.6834 24.7931 21.5085 24.3881 21.5085H24.3856C23.9186 21.5085 23.5669 21.7428 23.1216 22.0739C23.0658 22.115 23.012 22.1561 22.9596 22.1961L22.9298 22.2188C22.4988 22.548 22.3755 22.6206 22.1508 22.5726C21.716 22.4799 20.4637 21.8292 19.3221 20.6903C18.1804 19.5515 17.4858 18.2622 17.3927 17.8291C17.3467 17.6136 17.4165 17.4929 17.7343 17.0753L17.7808 17.0141C17.8187 16.964 17.8572 16.9128 17.896 16.8598C18.188 16.4618 18.4286 16.093 18.4286 15.6148C18.4281 15.2073 18.2589 14.8438 18.0029 14.2941L18.0013 14.2905C17.6186 13.472 16.5815 11.8052 15.8225 11.0568C15.4524 10.6914 15.2159 10.488 14.9511 10.3886C14.5543 10.2382 14.241 10.379 14.0342 10.4721C13.9996 10.4876 13.9607 10.5047 13.9189 10.5227C13.5015 10.6971 13.1011 10.9096 12.7226 11.1575C12.0564 11.6022 11.5409 12.0503 11.1917 12.7996C10.8985 13.4264 10.6362 14.8932 12.175 17.6913C13.5372 20.1695 14.5104 21.4633 16.5104 23.4617C18.5848 25.5303 20.198 26.6098 22.2836 27.7792Z" fill="#859578"/>
</svg>
