<svg width="40" height="40" viewBox="0 0 40 40" fill="none" xmlns="http://www.w3.org/2000/svg">
<path fill-rule="evenodd" clip-rule="evenodd" d="M40 20C40 31.0457 31.0457 40 20 40C8.95431 40 0 31.0457 0 20C0 8.95429 8.95431 0 20 0C31.0457 0 40 8.95429 40 20ZM16.3025 28.364C17.3963 28.788 18.609 29 19.9406 29C20.535 29 21.1215 28.956 21.7001 28.868C22.2787 28.78 22.8336 28.648 23.3646 28.472L22.5561 26.072C22.1678 26.2 21.7596 26.3 21.3316 26.372C20.9115 26.444 20.4874 26.48 20.0594 26.48C19.1083 26.48 18.2483 26.348 17.4795 26.084C16.7107 25.82 16.0449 25.428 15.4822 24.908C14.9273 24.388 14.4954 23.744 14.1863 22.976C13.8771 22.208 13.7028 21.32 13.6631 20.312C13.6314 19.248 13.7503 18.3 14.0198 17.468C14.2893 16.628 14.6975 15.916 15.2444 15.332C15.7992 14.74 16.4769 14.292 17.2774 13.988C18.0859 13.676 19.0053 13.52 20.0357 13.52C20.6222 13.52 21.2721 13.604 21.9855 13.772C22.7067 13.932 23.3963 14.232 24.0542 14.672C24.712 15.104 25.251 15.716 25.6711 16.508C26.0991 17.3 26.3131 18.328 26.3131 19.592C26.3131 20.056 26.2972 20.48 26.2655 20.864C26.2417 21.24 26.1506 21.544 25.9921 21.776C25.8336 22 25.5522 22.112 25.148 22.112C24.8388 22.112 24.5852 21.984 24.3871 21.728C24.1968 21.472 24.1017 21.032 24.1017 20.408L24.1493 15.68H22.2233V16.0619C21.9848 15.9146 21.7074 15.7833 21.391 15.668C20.8283 15.452 20.2893 15.344 19.7741 15.344C18.926 15.344 18.1572 15.536 17.4676 15.92C16.7781 16.296 16.2272 16.832 15.8151 17.528C15.4108 18.224 15.2087 19.048 15.2087 20C15.2087 20.928 15.4029 21.744 15.7913 22.448C16.1797 23.144 16.7107 23.688 17.3844 24.08C18.0661 24.464 18.8468 24.656 19.7266 24.656C20.321 24.656 20.9036 24.532 21.4742 24.284C21.8454 24.1249 22.1725 23.8819 22.4556 23.555C22.6832 23.8292 22.9744 24.0522 23.3289 24.224C23.9234 24.512 24.5297 24.656 25.148 24.656C26.5667 24.656 27.5614 24.212 28.1321 23.324C28.7107 22.428 29 21.184 29 19.592C29 18.432 28.8058 17.336 28.4174 16.304C28.0291 15.272 27.4465 14.36 26.6697 13.568C25.9009 12.768 24.9419 12.14 23.7926 11.684C22.6433 11.228 21.3118 11 19.7979 11C18.6486 11 17.5469 11.188 16.4927 11.564C15.4386 11.932 14.4954 12.5 13.6631 13.268C12.8388 14.036 12.1889 15.012 11.7133 16.196C11.2378 17.38 11 18.784 11 20.408C11 21.648 11.214 22.792 11.642 23.84C12.07 24.888 12.6803 25.796 13.4729 26.564C14.2655 27.34 15.2087 27.94 16.3025 28.364Z" fill="#859578"/>
<path d="M19.9168 22.112C20.432 22.112 20.8719 21.964 21.2365 21.668C21.609 21.372 21.7952 20.816 21.7952 20C21.7952 19.312 21.6447 18.788 21.3435 18.428C21.0502 18.068 20.6063 17.888 20.0119 17.888C19.2906 17.888 18.7556 18.08 18.4069 18.464C18.0661 18.848 17.8956 19.36 17.8956 20C17.8956 20.648 18.07 21.164 18.4188 21.548C18.7675 21.924 19.2668 22.112 19.9168 22.112Z" fill="#859578"/>
</svg>
