<svg width="21" height="27" viewBox="0 0 21 27" fill="none" xmlns="http://www.w3.org/2000/svg">
<path fill-rule="evenodd" clip-rule="evenodd" d="M10.5 27C9.39692 25.6762 8.5509 24.1537 8.04932 22.6473H0.5V3.44353C5.76952 5.85086 5.02836 12.8475 4.27414 18.409H8.33737L8.19852 13.1074C8.09523 11.1898 8.03948 9.25719 7.88314 7.36005C7.65178 4.55253 8.55815 2.12365 10.5 0C12.4419 2.12365 13.3482 4.55253 13.1169 7.36005C12.9605 9.25719 12.9048 11.1898 12.8015 13.1074L12.6626 18.409H16.7259C15.9716 12.8475 15.2305 5.85086 20.5 3.44353V22.6473H12.9507C12.4491 24.1537 11.6031 25.6762 10.5 27Z" fill="#FFE248"/>
</svg>
