<svg width="47" height="47" viewBox="0 0 47 47" fill="none" xmlns="http://www.w3.org/2000/svg">
<path d="M23.4995 18.8266C20.9233 18.8266 18.8256 20.9233 18.8256 23.4995C18.8256 26.0767 20.9233 28.1744 23.4995 28.1744C26.0767 28.1744 28.1734 26.0767 28.1734 23.4995C28.1734 20.9233 26.0767 18.8266 23.4995 18.8266ZM23.4995 18.8266C20.9233 18.8266 18.8256 20.9233 18.8256 23.4995C18.8256 26.0767 20.9233 28.1744 23.4995 28.1744C26.0767 28.1744 28.1734 26.0767 28.1734 23.4995C28.1734 20.9233 26.0767 18.8266 23.4995 18.8266ZM31.2859 11.2062H15.7141C13.2286 11.2062 11.2062 13.2286 11.2062 15.7141V31.2859C11.2062 33.7714 13.2286 35.7938 15.7141 35.7938H31.2859C33.7714 35.7938 35.7938 33.7714 35.7938 31.2859V15.7141C35.7938 13.2286 33.7714 11.2062 31.2859 11.2062ZM23.4995 31.5943C19.037 31.5943 15.4057 27.963 15.4057 23.4995C15.4057 19.037 19.037 15.4057 23.4995 15.4057C27.963 15.4057 31.5943 19.037 31.5943 23.4995C31.5943 27.963 27.963 31.5943 23.4995 31.5943ZM31.8541 17.0796C30.7981 17.0796 29.939 16.2205 29.939 15.1644C29.939 14.1084 30.7981 13.2493 31.8541 13.2493C32.9102 13.2493 33.7693 14.1084 33.7693 15.1644C33.7693 16.2205 32.9102 17.0796 31.8541 17.0796ZM23.4995 18.8266C20.9233 18.8266 18.8256 20.9233 18.8256 23.4995C18.8256 26.0767 20.9233 28.1744 23.4995 28.1744C26.0767 28.1744 28.1734 26.0767 28.1734 23.4995C28.1734 20.9233 26.0767 18.8266 23.4995 18.8266ZM31.2859 11.2062H15.7141C13.2286 11.2062 11.2062 13.2286 11.2062 15.7141V31.2859C11.2062 33.7714 13.2286 35.7938 15.7141 35.7938H31.2859C33.7714 35.7938 35.7938 33.7714 35.7938 31.2859V15.7141C35.7938 13.2286 33.7714 11.2062 31.2859 11.2062ZM23.4995 31.5943C19.037 31.5943 15.4057 27.963 15.4057 23.4995C15.4057 19.037 19.037 15.4057 23.4995 15.4057C27.963 15.4057 31.5943 19.037 31.5943 23.4995C31.5943 27.963 27.963 31.5943 23.4995 31.5943ZM31.8541 17.0796C30.7981 17.0796 29.939 16.2205 29.939 15.1644C29.939 14.1084 30.7981 13.2493 31.8541 13.2493C32.9102 13.2493 33.7693 14.1084 33.7693 15.1644C33.7693 16.2205 32.9102 17.0796 31.8541 17.0796ZM23.4995 18.8266C20.9233 18.8266 18.8256 20.9233 18.8256 23.4995C18.8256 26.0767 20.9233 28.1744 23.4995 28.1744C26.0767 28.1744 28.1734 26.0767 28.1734 23.4995C28.1734 20.9233 26.0767 18.8266 23.4995 18.8266ZM23.5 0C10.5213 0 0 10.5213 0 23.5C0 36.4787 10.5213 47 23.5 47C36.4787 47 47 36.4787 47 23.5C47 10.5213 36.4787 0 23.5 0ZM39.2136 31.2859C39.2136 35.6576 35.6576 39.2136 31.2859 39.2136H15.7141C11.3424 39.2136 7.78641 35.6576 7.78641 31.2859V15.7141C7.78641 11.3424 11.3424 7.78641 15.7141 7.78641H31.2859C35.6576 7.78641 39.2136 11.3424 39.2136 15.7141V31.2859ZM31.2859 11.2062H15.7141C13.2286 11.2062 11.2062 13.2286 11.2062 15.7141V31.2859C11.2062 33.7714 13.2286 35.7938 15.7141 35.7938H31.2859C33.7714 35.7938 35.7938 33.7714 35.7938 31.2859V15.7141C35.7938 13.2286 33.7714 11.2062 31.2859 11.2062ZM23.4995 31.5943C19.037 31.5943 15.4057 27.963 15.4057 23.4995C15.4057 19.037 19.037 15.4057 23.4995 15.4057C27.963 15.4057 31.5943 19.037 31.5943 23.4995C31.5943 27.963 27.963 31.5943 23.4995 31.5943ZM31.8541 17.0796C30.7981 17.0796 29.939 16.2205 29.939 15.1644C29.939 14.1084 30.7981 13.2493 31.8541 13.2493C32.9102 13.2493 33.7693 14.1084 33.7693 15.1644C33.7693 16.2205 32.9102 17.0796 31.8541 17.0796ZM23.4995 18.8266C20.9233 18.8266 18.8256 20.9233 18.8256 23.4995C18.8256 26.0767 20.9233 28.1744 23.4995 28.1744C26.0767 28.1744 28.1734 26.0767 28.1734 23.4995C28.1734 20.9233 26.0767 18.8266 23.4995 18.8266ZM23.4995 18.8266C20.9233 18.8266 18.8256 20.9233 18.8256 23.4995C18.8256 26.0767 20.9233 28.1744 23.4995 28.1744C26.0767 28.1744 28.1734 26.0767 28.1734 23.4995C28.1734 20.9233 26.0767 18.8266 23.4995 18.8266ZM23.4995 18.8266C20.9233 18.8266 18.8256 20.9233 18.8256 23.4995C18.8256 26.0767 20.9233 28.1744 23.4995 28.1744C26.0767 28.1744 28.1734 26.0767 28.1734 23.4995C28.1734 20.9233 26.0767 18.8266 23.4995 18.8266ZM31.2859 11.2062H15.7141C13.2286 11.2062 11.2062 13.2286 11.2062 15.7141V31.2859C11.2062 33.7714 13.2286 35.7938 15.7141 35.7938H31.2859C33.7714 35.7938 35.7938 33.7714 35.7938 31.2859V15.7141C35.7938 13.2286 33.7714 11.2062 31.2859 11.2062ZM23.4995 31.5943C19.037 31.5943 15.4057 27.963 15.4057 23.4995C15.4057 19.037 19.037 15.4057 23.4995 15.4057C27.963 15.4057 31.5943 19.037 31.5943 23.4995C31.5943 27.963 27.963 31.5943 23.4995 31.5943ZM31.8541 17.0796C30.7981 17.0796 29.939 16.2205 29.939 15.1644C29.939 14.1084 30.7981 13.2493 31.8541 13.2493C32.9102 13.2493 33.7693 14.1084 33.7693 15.1644C33.7693 16.2205 32.9102 17.0796 31.8541 17.0796ZM23.4995 18.8266C20.9233 18.8266 18.8256 20.9233 18.8256 23.4995C18.8256 26.0767 20.9233 28.1744 23.4995 28.1744C26.0767 28.1744 28.1734 26.0767 28.1734 23.4995C28.1734 20.9233 26.0767 18.8266 23.4995 18.8266ZM23.4995 18.8266C20.9233 18.8266 18.8256 20.9233 18.8256 23.4995C18.8256 26.0767 20.9233 28.1744 23.4995 28.1744C26.0767 28.1744 28.1734 26.0767 28.1734 23.4995C28.1734 20.9233 26.0767 18.8266 23.4995 18.8266ZM23.4995 18.8266C20.9233 18.8266 18.8256 20.9233 18.8256 23.4995C18.8256 26.0767 20.9233 28.1744 23.4995 28.1744C26.0767 28.1744 28.1734 26.0767 28.1734 23.4995C28.1734 20.9233 26.0767 18.8266 23.4995 18.8266ZM31.2859 11.2062H15.7141C13.2286 11.2062 11.2062 13.2286 11.2062 15.7141V31.2859C11.2062 33.7714 13.2286 35.7938 15.7141 35.7938H31.2859C33.7714 35.7938 35.7938 33.7714 35.7938 31.2859V15.7141C35.7938 13.2286 33.7714 11.2062 31.2859 11.2062ZM23.4995 31.5943C19.037 31.5943 15.4057 27.963 15.4057 23.4995C15.4057 19.037 19.037 15.4057 23.4995 15.4057C27.963 15.4057 31.5943 19.037 31.5943 23.4995C31.5943 27.963 27.963 31.5943 23.4995 31.5943ZM31.8541 17.0796C30.7981 17.0796 29.939 16.2205 29.939 15.1644C29.939 14.1084 30.7981 13.2493 31.8541 13.2493C32.9102 13.2493 33.7693 14.1084 33.7693 15.1644C33.7693 16.2205 32.9102 17.0796 31.8541 17.0796ZM23.4995 18.8266C20.9233 18.8266 18.8256 20.9233 18.8256 23.4995C18.8256 26.0767 20.9233 28.1744 23.4995 28.1744C26.0767 28.1744 28.1734 26.0767 28.1734 23.4995C28.1734 20.9233 26.0767 18.8266 23.4995 18.8266Z" fill="#163530"/>
</svg>
