<svg width="138" height="39" viewBox="0 0 138 39" fill="none" xmlns="http://www.w3.org/2000/svg">
<path d="M12.524 13.1905C12.4157 13.0973 12.2592 13.0874 12.1413 13.168C11.5514 13.5709 10.573 14.269 10.1903 14.6535C10.7701 14.3623 12.0354 13.8149 12.9005 13.915C13.7657 13.8149 15.0533 14.3623 15.6331 14.6535C15.2496 14.2682 14.2676 13.5678 13.6782 13.1653C13.5621 13.086 13.4084 13.0942 13.3001 13.1839L13.0038 13.4292C12.9441 13.4786 12.8577 13.4778 12.799 13.4272L12.524 13.1905Z" fill="#163530"/>
<path d="M11.7026 12.1325C11.5842 12.1325 11.5072 12.0071 11.5602 11.9006L11.8503 11.3175C11.9313 11.1548 12.0967 11.052 12.2776 11.052H13.5457C13.7267 11.052 13.8921 11.1548 13.973 11.3175L14.2632 11.9006C14.3162 12.0071 14.2392 12.1325 14.1208 12.1325L14.0989 12.1295C13.3037 12.0207 12.4975 12.0217 11.7026 12.1325Z" fill="#163530"/>
<path fill-rule="evenodd" clip-rule="evenodd" d="M0.333476 19.8758C-1.24361 11.5202 3.16708 5.28517 5.33495 3.30871C6.76843 2.00178 8.99829 -7.47736e-06 12.9005 0C16.8028 -7.47736e-06 19.0549 2.00178 20.4884 3.30871C22.6563 5.28517 27.067 11.5202 25.4899 19.8758C23.9241 28.1715 16.5152 36.0086 12.9005 39C9.28588 36.0086 1.89928 28.1715 0.333476 19.8758ZM8.93578 7.2704C9.73063 6.12945 10.3531 4.76259 10.6964 3.88549C10.8132 3.58702 11.0307 3.33778 11.3169 3.19616C12.3225 2.69858 13.5009 2.69858 14.5065 3.19616C14.7927 3.33778 15.0102 3.58702 15.127 3.88549C15.4703 4.76259 16.0927 6.12945 16.8876 7.2704C15.6532 7.15227 13.3777 7.47584 13.988 9.68221C14.006 9.74699 14.0646 9.7936 14.1314 9.7968L17.7837 9.97155C17.6642 9.79147 16.9951 9.43132 15.2747 9.43132C15.5734 8.83106 16.6725 7.99071 18.6797 9.43132C19.0979 9.79147 19.8626 10.6919 19.5758 11.4122L17.7837 13.2129C18.5005 13.0329 19.8984 13.1769 19.755 15.1938C19.6117 17.2106 17.9031 19.0354 17.0668 19.6957C16.9473 19.8157 16.6008 19.9118 16.1707 19.3355C15.6458 18.6323 13.9358 17.2976 12.9005 17.3398C11.7856 17.2976 10.1776 18.6323 9.65264 19.3355C9.22253 19.9118 8.87605 19.8157 8.75657 19.6957C7.92023 19.0354 6.21172 17.2106 6.06835 15.1938C5.92497 13.1769 7.32285 13.0329 8.03971 13.2129L6.24756 11.4122C5.96082 10.6919 6.72547 9.79147 7.14364 9.43132C9.15084 7.99071 10.25 8.83106 10.5487 9.43132C8.82825 9.43132 8.15919 9.79147 8.03971 9.97155L11.692 9.7968C11.7588 9.7936 11.8174 9.74699 11.8353 9.68221C12.4457 7.47584 10.1702 7.15227 8.93578 7.2704ZM17.0598 32.5825C17.4179 32.5193 17.7763 32.2468 17.8402 31.8869L19.7494 21.1415C17.6389 23.0857 16.1886 25.7685 15.9818 28.6398L15.8334 30.6999L14.1343 30.2851L14.4408 22.8182C14.4861 21.7159 13.8828 20.6898 12.9005 20.1984C11.8805 20.6877 11.2524 21.7451 11.3074 22.8802L11.6668 30.2851L9.96773 30.6999L9.81934 28.6398C9.61252 25.7685 8.32146 23.0857 6.21095 21.1415L7.96834 31.8762C8.02796 32.2404 8.38921 32.5198 8.75059 32.5842C9.34401 32.69 10.1567 32.9365 10.8503 33.1676C11.7597 33.4706 12.4877 34.1521 12.9005 35.0214C13.3134 34.1521 14.0414 33.4706 14.9508 33.1676C15.648 32.9353 16.4656 32.6874 17.0598 32.5825ZM8.93578 2.76848C8.81631 4.80935 7.10779 10.0436 1.22954 14.6535C3.02169 12.6127 6.30738 7.95469 7.02424 5.64971C5.82947 7.15035 2.80664 9.97155 2.66326 9.97155C2.48405 9.97155 5.5307 3.84894 8.93578 2.76848ZM24.5938 14.6535C18.7156 10.0436 17.0071 4.80935 16.8876 2.76848C20.2927 3.84894 23.3393 9.97155 23.1601 9.97155C23.0167 9.97155 19.9939 7.15035 18.7991 5.64971C19.516 7.95469 22.8017 12.6127 24.5938 14.6535Z" fill="#163530"/>
<path d="M12.5096 15.0005H13.2035C13.5867 15.0005 13.8973 15.3129 13.8973 15.6982C13.2233 15.4625 12.4898 15.4625 11.8158 15.6982C11.8158 15.3129 12.1264 15.0005 12.5096 15.0005Z" fill="#163530"/>
<path d="M34.8479 20.6408V32.102H36.8378V27.3138H42.656V32.102H44.6628V20.6408H42.656V25.3102H36.8378V20.6408H34.8479Z" fill="#163530"/>
<path d="M50.8034 20.6408C48.122 20.6408 46.9921 21.9313 46.9921 23.7651C46.9921 25.0215 47.5317 25.9045 48.5942 26.346C47.5486 26.7874 46.9584 27.6704 46.9584 28.9778C46.9584 30.7607 48.0545 32.102 50.7528 32.102H56.5204V30.0984H50.7528C49.5892 30.0984 49.0327 29.5551 49.0327 28.6552C49.0327 27.7213 49.6229 27.2629 50.7697 27.2629H56.4192V25.446H50.8203C49.6735 25.446 49.0833 25.0216 49.0833 24.0877C49.0833 23.2047 49.606 22.6444 50.8034 22.6444H56.5035V20.6408H50.8034Z" fill="#163530"/>
<path d="M58.7357 20.6408V22.6444H64.4189C65.6163 22.6444 66.1391 23.2047 66.1391 24.0707C66.1391 25.0215 65.5657 25.446 64.4021 25.446H60.9449V27.2629H64.4526C65.5994 27.2629 66.1897 27.7213 66.1897 28.6382C66.1897 29.5551 65.6331 30.0984 64.4695 30.0984H58.7188V32.102H64.4695C67.1509 32.102 68.264 30.7437 68.264 29.0287C68.264 27.6534 67.6906 26.8044 66.6113 26.346C67.6569 25.9045 68.2302 25.0725 68.2302 23.7141C68.2302 21.9482 67.1003 20.6408 64.4189 20.6408H58.7357Z" fill="#163530"/>
<path d="M71.7869 28.0609C70.9774 29.8438 70.7076 30.0984 69.9318 30.0984H69.5271V32.102H69.8981C71.9387 32.102 72.4614 31.1851 73.5576 28.6891L76.1379 22.8142C76.2896 22.4916 76.4751 22.3727 76.745 22.3727C77.1328 22.3727 77.3352 22.6104 77.3352 22.984V32.102H79.3421V22.8821C79.3421 21.4219 78.5157 20.4371 76.7956 20.4371C75.2778 20.4371 74.8562 21.2181 74.2828 22.5086L71.7869 28.0609Z" fill="#163530"/>
<path d="M91.4233 32.102H93.6325L89.7875 21.9143C89.4165 20.8276 88.607 20.4371 87.4265 20.4371C86.2291 20.4371 85.4196 20.8276 85.0318 21.9143L81.0349 32.102H83.2273L84.1548 29.7419H90.5295L91.4233 32.102ZM86.8362 22.8821C86.9543 22.6104 87.1398 22.4916 87.4096 22.4916C87.6795 22.4916 87.865 22.6104 87.9661 22.8821L89.8212 27.8402H84.8969L86.8362 22.8821Z" fill="#163530"/>
<path d="M97.2782 23.1029C97.2782 22.6614 97.5649 22.3727 98.0877 22.3727C98.5431 22.3727 98.796 22.6104 98.8803 22.984L100.499 29.9966C100.837 31.4738 101.663 32.3058 103.248 32.3058C104.817 32.3058 105.592 31.5078 105.946 29.9966L107.582 22.984C107.667 22.6104 107.903 22.3727 108.375 22.3727C108.898 22.3727 109.184 22.6614 109.184 23.1029V32.102H111.158V23.001C111.158 21.4728 110.264 20.4371 108.426 20.4371C106.79 20.4371 105.946 21.2521 105.626 22.6953L104.024 29.7079C103.923 30.1154 103.687 30.3531 103.265 30.3531C102.843 30.3531 102.607 30.1154 102.506 29.7079L100.904 22.6953C100.584 21.2521 99.6561 20.4371 98.0371 20.4371C96.1989 20.4371 95.3051 21.4728 95.3051 23.001V32.102H97.2782V23.1029Z" fill="#163530"/>
<path d="M113.899 20.6408V32.102H115.889V27.3138H121.707V32.102H123.714V20.6408H121.707V25.3102H115.889V20.6408H113.899Z" fill="#163530"/>
<path d="M135.791 32.102H138L134.155 21.9143C133.784 20.8276 132.974 20.4371 131.794 20.4371C130.597 20.4371 129.787 20.8276 129.399 21.9143L125.402 32.102H127.595L128.522 29.7419H134.897L135.791 32.102ZM131.204 22.8821C131.322 22.6104 131.507 22.4916 131.777 22.4916C132.047 22.4916 132.232 22.6104 132.334 22.8821L134.189 27.8402H129.264L131.204 22.8821Z" fill="#163530"/>
<path d="M34.0921 12.2041V5.70939H38.406V6.72869H35.1717V8.12686H36.7575C36.8172 8.12686 36.8963 8.12986 36.9949 8.13588C37.0964 8.13888 37.189 8.1449 37.2726 8.15392C37.634 8.19601 37.9356 8.31178 38.1775 8.5012C38.4224 8.69063 38.606 8.92967 38.7285 9.21833C38.8539 9.50698 38.9166 9.82269 38.9166 10.1655C38.9166 10.5082 38.8554 10.8255 38.733 11.1171C38.6105 11.4058 38.4269 11.6448 38.182 11.8342C37.9401 12.0207 37.637 12.1349 37.2726 12.177C37.189 12.186 37.0979 12.1936 36.9994 12.1996C36.9008 12.2026 36.8202 12.2041 36.7575 12.2041H34.0921ZM35.1717 11.1848H36.7127C36.7724 11.1848 36.8396 11.1818 36.9143 11.1758C36.9889 11.1697 37.0576 11.1607 37.1203 11.1487C37.3891 11.0916 37.5742 10.9653 37.6758 10.7698C37.7773 10.5744 37.8281 10.3729 37.8281 10.1655C37.8281 9.95499 37.7773 9.75354 37.6758 9.5611C37.5742 9.36566 37.3891 9.23937 37.1203 9.18224C37.0576 9.16721 36.9889 9.15819 36.9143 9.15518C36.8396 9.14917 36.7724 9.14616 36.7127 9.14616H35.1717V11.1848Z" fill="#163530"/>
<path d="M39.3661 12.2041V11.293C39.5423 11.3261 39.6782 11.3231 39.7738 11.284C39.8693 11.2419 39.941 11.1637 39.9888 11.0495C40.0366 10.9352 40.0784 10.7834 40.1142 10.5939C40.162 10.3263 40.2038 10.0181 40.2396 9.66935C40.2785 9.32056 40.3113 8.94771 40.3382 8.55082C40.368 8.15392 40.3949 7.748 40.4188 7.33306H43.9801V12.2041H42.905V8.35237H41.3685C41.3536 8.54781 41.3356 8.76731 41.3147 9.01086C41.2938 9.2514 41.2714 9.49495 41.2475 9.74151C41.2236 9.98807 41.1968 10.2226 41.1669 10.4451C41.14 10.6646 41.1117 10.8525 41.0818 11.0089C41.0131 11.3607 40.9146 11.6388 40.7861 11.8433C40.6607 12.0477 40.4845 12.1785 40.2575 12.2357C40.0306 12.2958 39.7334 12.2853 39.3661 12.2041Z" fill="#163530"/>
<path d="M46.5914 12.3394C46.242 12.3394 45.9463 12.2732 45.7044 12.1409C45.4625 12.0056 45.2789 11.8267 45.1534 11.6042C45.031 11.3817 44.9698 11.1367 44.9698 10.8691C44.9698 10.6345 45.0086 10.4241 45.0862 10.2376C45.1639 10.0482 45.2833 9.88584 45.4446 9.75053C45.6059 9.61222 45.8149 9.49946 46.0717 9.41226C46.2659 9.34912 46.4928 9.29199 46.7526 9.24088C47.0154 9.18976 47.2991 9.14316 47.6038 9.10106C47.9114 9.05596 48.2324 9.00785 48.5669 8.95673L48.1816 9.17773C48.1846 8.84097 48.11 8.59291 47.9576 8.43355C47.8053 8.27419 47.5485 8.19451 47.1872 8.19451C46.9692 8.19451 46.7586 8.24563 46.5555 8.34786C46.3525 8.45009 46.2106 8.62599 46.13 8.87555L45.1445 8.56435C45.2639 8.15241 45.4909 7.82167 45.8254 7.5721C46.1628 7.32254 46.6168 7.19775 47.1872 7.19775C47.6172 7.19775 47.995 7.26841 48.3205 7.40973C48.649 7.55105 48.8924 7.78258 49.0507 8.10431C49.1373 8.27569 49.1895 8.45159 49.2074 8.632C49.2254 8.8094 49.2343 9.00334 49.2343 9.21381V12.2041H48.2891V11.1487L48.4459 11.3201C48.2279 11.6719 47.9726 11.9305 47.6799 12.0958C47.3902 12.2582 47.0274 12.3394 46.5914 12.3394ZM46.8064 11.4734C47.0513 11.4734 47.2603 11.4298 47.4335 11.3426C47.6067 11.2554 47.7441 11.1487 47.8457 11.0224C47.9502 10.8961 48.0204 10.7774 48.0562 10.6661C48.1129 10.5278 48.1443 10.3699 48.1503 10.1925C48.1592 10.0121 48.1637 9.86629 48.1637 9.75504L48.4952 9.85426C48.1697 9.90538 47.8904 9.95048 47.6575 9.98957C47.4246 10.0287 47.2245 10.0662 47.0573 10.1023C46.89 10.1354 46.7422 10.173 46.6138 10.2151C46.4883 10.2602 46.3823 10.3128 46.2957 10.3729C46.2091 10.4331 46.1419 10.5022 46.0941 10.5804C46.0493 10.6586 46.0269 10.7503 46.0269 10.8555C46.0269 10.9758 46.0568 11.0825 46.1165 11.1758C46.1763 11.266 46.2629 11.3381 46.3764 11.3922C46.4928 11.4464 46.6362 11.4734 46.8064 11.4734Z" fill="#163530"/>
<path d="M50.4005 12.2041V7.33306H53.8498V8.35237H51.4801V12.2041H50.4005Z" fill="#163530"/>
<path d="M56.7544 12.3394C56.2706 12.3394 55.848 12.2296 55.4867 12.0101C55.1253 11.7906 54.8446 11.4885 54.6445 11.1036C54.4474 10.7157 54.3489 10.2707 54.3489 9.76857C54.3489 9.25741 54.4504 8.8094 54.6535 8.42453C54.8565 8.03966 55.1388 7.73898 55.5001 7.52249C55.8615 7.306 56.2796 7.19775 56.7544 7.19775C57.2412 7.19775 57.6652 7.3075 58.0266 7.527C58.3879 7.7465 58.6687 8.05018 58.8687 8.43806C59.0688 8.82293 59.1689 9.26643 59.1689 9.76857C59.1689 10.2737 59.0673 10.7202 58.8643 11.1081C58.6642 11.493 58.3835 11.7952 58.0221 12.0147C57.6608 12.2311 57.2382 12.3394 56.7544 12.3394ZM56.7544 11.3201C57.1844 11.3201 57.504 11.1758 57.713 10.8871C57.9221 10.5984 58.0266 10.2256 58.0266 9.76857C58.0266 9.2965 57.9206 8.92065 57.7085 8.64102C57.4965 8.35838 57.1785 8.21706 56.7544 8.21706C56.4647 8.21706 56.2258 8.28321 56.0377 8.41551C55.8525 8.5448 55.7151 8.72671 55.6255 8.96124C55.5359 9.19277 55.4911 9.46188 55.4911 9.76857C55.4911 10.2406 55.5972 10.618 55.8092 10.9006C56.0242 11.1803 56.3393 11.3201 56.7544 11.3201Z" fill="#163530"/>
<path d="M59.7975 13.2865V11.3517C60.0603 11.3517 60.2469 11.2614 60.3574 11.081C60.4679 10.9006 60.556 10.5879 60.6217 10.1429C60.6635 9.87832 60.6979 9.59869 60.7248 9.30402C60.7516 9.00935 60.774 8.69815 60.7919 8.37041C60.8129 8.04267 60.8308 7.69688 60.8457 7.33306H64.4473V11.3517H64.9355V13.2865H63.9142V12.2041H60.8143V13.2865H59.7975ZM61.2444 11.3517H63.3722V8.18549H61.7909C61.7819 8.3659 61.7715 8.55082 61.7595 8.74024C61.7476 8.92667 61.7341 9.11309 61.7192 9.29951C61.7043 9.48593 61.6879 9.66484 61.6699 9.83622C61.655 10.0046 61.6371 10.161 61.6162 10.3053C61.5833 10.5579 61.543 10.7653 61.4952 10.9277C61.4475 11.0901 61.3638 11.2314 61.2444 11.3517Z" fill="#163530"/>
<path d="M65.9236 6.59339V5.59663H67.0032V6.59339H65.9236ZM65.9236 12.2041V7.33306H67.0032V12.2041H65.9236Z" fill="#163530"/>
<path d="M70.5804 6.78282C70.3325 6.78282 70.1055 6.72118 69.8995 6.5979C69.6934 6.47462 69.5292 6.31075 69.4067 6.10628C69.2843 5.89882 69.223 5.6688 69.223 5.41622H70.0652C70.0652 5.56055 70.1145 5.68383 70.213 5.78606C70.3146 5.88528 70.437 5.9349 70.5804 5.9349C70.7237 5.9349 70.8447 5.88528 70.9432 5.78606C71.0447 5.68383 71.0955 5.56055 71.0955 5.41622H71.9377C71.9377 5.6688 71.8764 5.89882 71.754 6.10628C71.6316 6.31075 71.4673 6.47462 71.2613 6.5979C71.0552 6.72118 70.8282 6.78282 70.5804 6.78282ZM72.5379 7.33306V12.2041H71.5031V9.02439L69.2006 12.2041H68.3361V7.33306H69.3709V10.4316L71.6823 7.33306H72.5379Z" fill="#163530"/>
<path d="M73.7868 12.2041V7.33306H74.8664V9.25441H77.039V7.33306H78.1186V12.2041H77.039V10.2737H74.8664V12.2041H73.7868Z" fill="#163530"/>
<path d="M80.7218 12.3394C80.3724 12.3394 80.0768 12.2732 79.8349 12.1409C79.593 12.0056 79.4093 11.8267 79.2839 11.6042C79.1614 11.3817 79.1002 11.1367 79.1002 10.8691C79.1002 10.6345 79.139 10.4241 79.2167 10.2376C79.2943 10.0482 79.4138 9.88584 79.575 9.75053C79.7363 9.61222 79.9454 9.49946 80.2022 9.41226C80.3963 9.34912 80.6233 9.29199 80.8831 9.24088C81.1459 9.18976 81.4296 9.14316 81.7342 9.10106C82.0418 9.05596 82.3628 9.00785 82.6973 8.95673L82.3121 9.17773C82.315 8.84097 82.2404 8.59291 82.0881 8.43355C81.9358 8.27419 81.6789 8.19451 81.3176 8.19451C81.0996 8.19451 80.889 8.24563 80.686 8.34786C80.4829 8.45009 80.341 8.62599 80.2604 8.87555L79.2749 8.56435C79.3944 8.15241 79.6213 7.82167 79.9558 7.5721C80.2933 7.32254 80.7472 7.19775 81.3176 7.19775C81.7476 7.19775 82.1254 7.26841 82.4509 7.40973C82.7794 7.55105 83.0228 7.78258 83.1811 8.10431C83.2677 8.27569 83.32 8.45159 83.3379 8.632C83.3558 8.8094 83.3648 9.00334 83.3648 9.21381V12.2041H82.4196V11.1487L82.5764 11.3201C82.3584 11.6719 82.103 11.9305 81.8103 12.0958C81.5207 12.2582 81.1578 12.3394 80.7218 12.3394ZM80.9368 11.4734C81.1817 11.4734 81.3908 11.4298 81.564 11.3426C81.7372 11.2554 81.8745 11.1487 81.9761 11.0224C82.0806 10.8961 82.1508 10.7774 82.1866 10.6661C82.2434 10.5278 82.2747 10.3699 82.2807 10.1925C82.2897 10.0121 82.2941 9.86629 82.2941 9.75504L82.6256 9.85426C82.3001 9.90538 82.0209 9.95048 81.7879 9.98957C81.555 10.0287 81.3549 10.0662 81.1877 10.1023C81.0204 10.1354 80.8726 10.173 80.7442 10.2151C80.6188 10.2602 80.5128 10.3128 80.4262 10.3729C80.3396 10.4331 80.2724 10.5022 80.2246 10.5804C80.1798 10.6586 80.1574 10.7503 80.1574 10.8555C80.1574 10.9758 80.1872 11.0825 80.247 11.1758C80.3067 11.266 80.3933 11.3381 80.5068 11.3922C80.6233 11.4464 80.7666 11.4734 80.9368 11.4734Z" fill="#163530"/>
<path d="M88.4613 12.3394C87.9775 12.3394 87.5549 12.2296 87.1936 12.0101C86.8322 11.7906 86.5515 11.4885 86.3514 11.1036C86.1543 10.7157 86.0558 10.2707 86.0558 9.76857C86.0558 9.25741 86.1573 8.8094 86.3604 8.42453C86.5635 8.03966 86.8457 7.73898 87.207 7.52249C87.5684 7.306 87.9865 7.19775 88.4613 7.19775C88.9481 7.19775 89.3722 7.3075 89.7335 7.527C90.0949 7.7465 90.3756 8.05018 90.5757 8.43806C90.7758 8.82293 90.8758 9.26643 90.8758 9.76857C90.8758 10.2737 90.7743 10.7202 90.5712 11.1081C90.3711 11.493 90.0904 11.7952 89.729 12.0147C89.3677 12.2311 88.9451 12.3394 88.4613 12.3394ZM88.4613 11.3201C88.8913 11.3201 89.2109 11.1758 89.4199 10.8871C89.629 10.5984 89.7335 10.2256 89.7335 9.76857C89.7335 9.2965 89.6275 8.92065 89.4155 8.64102C89.2034 8.35838 88.8854 8.21706 88.4613 8.21706C88.1716 8.21706 87.9327 8.28321 87.7446 8.41551C87.5594 8.5448 87.4221 8.72671 87.3325 8.96124C87.2429 9.19277 87.1981 9.46188 87.1981 9.76857C87.1981 10.2406 87.3041 10.618 87.5161 10.9006C87.7311 11.1803 88.0462 11.3201 88.4613 11.3201Z" fill="#163530"/>
<path d="M94.1877 12.3394C93.7158 12.3394 93.3201 12.2266 93.0006 12.0011C92.681 11.7756 92.4406 11.4689 92.2794 11.081C92.1181 10.6902 92.0375 10.2527 92.0375 9.76857C92.0375 9.27846 92.1181 8.83947 92.2794 8.45159C92.4406 8.06371 92.6766 7.75852 92.9871 7.53602C93.3007 7.31051 93.6874 7.19775 94.1473 7.19775C94.6043 7.19775 95 7.31051 95.3344 7.53602C95.6719 7.75852 95.9332 8.06371 96.1184 8.45159C96.3035 8.83646 96.3961 9.27546 96.3961 9.76857C96.3961 10.2557 96.305 10.6932 96.1228 11.081C95.9407 11.4689 95.6838 11.7756 95.3523 12.0011C95.0209 12.2266 94.6326 12.3394 94.1877 12.3394ZM91.8538 14.369V7.33306H92.808V10.7518H92.9423V14.369H91.8538ZM94.0219 11.3652C94.3026 11.3652 94.5341 11.2945 94.7163 11.1532C94.8984 11.0119 95.0328 10.821 95.1194 10.5804C95.209 10.3369 95.2538 10.0662 95.2538 9.76857C95.2538 9.4739 95.209 9.2063 95.1194 8.96575C95.0298 8.7222 94.891 8.52977 94.7028 8.38845C94.5147 8.24412 94.2758 8.17196 93.9861 8.17196C93.7113 8.17196 93.4874 8.23961 93.3141 8.37492C93.1409 8.50722 93.0125 8.69364 92.9289 8.93418C92.8483 9.17172 92.808 9.44985 92.808 9.76857C92.808 10.0843 92.8483 10.3624 92.9289 10.603C93.0125 10.8435 93.1424 11.0314 93.3186 11.1667C93.4978 11.299 93.7322 11.3652 94.0219 11.3652Z" fill="#163530"/>
<path d="M97.3835 12.2041V7.33306H100.833V8.35237H98.4631V12.2041H97.3835Z" fill="#163530"/>
<path d="M102.927 12.3394C102.578 12.3394 102.282 12.2732 102.04 12.1409C101.798 12.0056 101.615 11.8267 101.489 11.6042C101.367 11.3817 101.306 11.1367 101.306 10.8691C101.306 10.6345 101.344 10.4241 101.422 10.2376C101.5 10.0482 101.619 9.88584 101.78 9.75053C101.942 9.61222 102.151 9.49946 102.408 9.41226C102.602 9.34912 102.829 9.29199 103.088 9.24088C103.351 9.18976 103.635 9.14316 103.94 9.10106C104.247 9.05596 104.568 9.00785 104.903 8.95673L104.517 9.17773C104.52 8.84097 104.446 8.59291 104.293 8.43355C104.141 8.27419 103.884 8.19451 103.523 8.19451C103.305 8.19451 103.094 8.24563 102.891 8.34786C102.688 8.45009 102.546 8.62599 102.466 8.87555L101.48 8.56435C101.6 8.15241 101.827 7.82167 102.161 7.5721C102.499 7.32254 102.953 7.19775 103.523 7.19775C103.953 7.19775 104.331 7.26841 104.656 7.40973C104.985 7.55105 105.228 7.78258 105.386 8.10431C105.473 8.27569 105.525 8.45159 105.543 8.632C105.561 8.8094 105.57 9.00334 105.57 9.21381V12.2041H104.625V11.1487L104.782 11.3201C104.564 11.6719 104.308 11.9305 104.016 12.0958C103.726 12.2582 103.363 12.3394 102.927 12.3394ZM103.142 11.4734C103.387 11.4734 103.596 11.4298 103.769 11.3426C103.943 11.2554 104.08 11.1487 104.181 11.0224C104.286 10.8961 104.356 10.7774 104.392 10.6661C104.449 10.5278 104.48 10.3699 104.486 10.1925C104.495 10.0121 104.499 9.86629 104.499 9.75504L104.831 9.85426C104.505 9.90538 104.226 9.95048 103.993 9.98957C103.76 10.0287 103.56 10.0662 103.393 10.1023C103.226 10.1354 103.078 10.173 102.95 10.2151C102.824 10.2602 102.718 10.3128 102.632 10.3729C102.545 10.4331 102.478 10.5022 102.43 10.5804C102.385 10.6586 102.363 10.7503 102.363 10.8555C102.363 10.9758 102.393 11.0825 102.452 11.1758C102.512 11.266 102.599 11.3381 102.712 11.3922C102.829 11.4464 102.972 11.4734 103.142 11.4734Z" fill="#163530"/>
<path d="M106.727 12.2041V7.33306H107.807V9.25441H109.98V7.33306H111.059V12.2041H109.98V10.2737H107.807V12.2041H106.727Z" fill="#163530"/>
<path d="M112.399 6.59339V5.59663H113.479V6.59339H112.399ZM112.399 12.2041V7.33306H113.479V12.2041H112.399Z" fill="#163530"/>
<path d="M116.541 12.3394C116.081 12.3394 115.661 12.2417 115.282 12.0462C114.903 11.8508 114.604 11.5832 114.386 11.2434L115.237 10.6706C115.41 10.8781 115.603 11.0389 115.815 11.1532C116.027 11.2645 116.263 11.3201 116.523 11.3201C116.795 11.3201 117.008 11.2599 117.163 11.1397C117.319 11.0194 117.396 10.8585 117.396 10.6571C117.396 10.4797 117.344 10.3549 117.24 10.2827C117.135 10.2076 116.998 10.1625 116.827 10.1474C116.657 10.1324 116.475 10.1249 116.281 10.1249H115.923V9.26343H116.276C116.548 9.26343 116.775 9.23186 116.957 9.16871C117.142 9.10557 117.235 8.96575 117.235 8.74926C117.235 8.55382 117.163 8.41551 117.02 8.33433C116.877 8.25014 116.709 8.20804 116.518 8.20804C116.285 8.20804 116.055 8.25765 115.828 8.35688C115.601 8.4561 115.398 8.57637 115.219 8.71769L114.61 7.97802C114.879 7.73748 115.179 7.54805 115.51 7.40973C115.842 7.26841 116.196 7.19775 116.572 7.19775C116.883 7.19775 117.172 7.25188 117.441 7.36012C117.713 7.46837 117.931 7.63073 118.095 7.84722C118.262 8.06371 118.346 8.33132 118.346 8.65004C118.346 8.87856 118.297 9.09354 118.198 9.295C118.103 9.49646 117.949 9.68739 117.737 9.8678L117.723 9.516C117.888 9.58516 118.026 9.68137 118.14 9.80465C118.256 9.92793 118.344 10.0723 118.404 10.2376C118.467 10.403 118.498 10.5789 118.498 10.7653C118.498 11.1051 118.409 11.3922 118.229 11.6268C118.05 11.8613 117.811 12.0387 117.513 12.159C117.217 12.2793 116.893 12.3394 116.541 12.3394Z" fill="#163530"/>
<path d="M120.837 12.3394C120.487 12.3394 120.192 12.2732 119.95 12.1409C119.708 12.0056 119.524 11.8267 119.399 11.6042C119.276 11.3817 119.215 11.1367 119.215 10.8691C119.215 10.6345 119.254 10.4241 119.332 10.2376C119.409 10.0482 119.529 9.88584 119.69 9.75053C119.851 9.61222 120.06 9.49946 120.317 9.41226C120.511 9.34912 120.738 9.29199 120.998 9.24088C121.261 9.18976 121.544 9.14316 121.849 9.10106C122.157 9.05596 122.478 9.00785 122.812 8.95673L122.427 9.17773C122.43 8.84097 122.355 8.59291 122.203 8.43355C122.051 8.27419 121.794 8.19451 121.432 8.19451C121.214 8.19451 121.004 8.24563 120.801 8.34786C120.598 8.45009 120.456 8.62599 120.375 8.87555L119.39 8.56435C119.509 8.15241 119.736 7.82167 120.071 7.5721C120.408 7.32254 120.862 7.19775 121.432 7.19775C121.862 7.19775 122.24 7.26841 122.566 7.40973C122.894 7.55105 123.138 7.78258 123.296 8.10431C123.383 8.27569 123.435 8.45159 123.453 8.632C123.471 8.8094 123.48 9.00334 123.48 9.21381V12.2041H122.534V11.1487L122.691 11.3201C122.473 11.6719 122.218 11.9305 121.925 12.0958C121.636 12.2582 121.273 12.3394 120.837 12.3394ZM121.052 11.4734C121.297 11.4734 121.506 11.4298 121.679 11.3426C121.852 11.2554 121.989 11.1487 122.091 11.0224C122.195 10.8961 122.266 10.7774 122.301 10.6661C122.358 10.5278 122.39 10.3699 122.396 10.1925C122.405 10.0121 122.409 9.86629 122.409 9.75504L122.74 9.85426C122.415 9.90538 122.136 9.95048 121.903 9.98957C121.67 10.0287 121.47 10.0662 121.303 10.1023C121.135 10.1354 120.987 10.173 120.859 10.2151C120.734 10.2602 120.628 10.3128 120.541 10.3729C120.454 10.4331 120.387 10.5022 120.339 10.5804C120.295 10.6586 120.272 10.7503 120.272 10.8555C120.272 10.9758 120.302 11.0825 120.362 11.1758C120.422 11.266 120.508 11.3381 120.622 11.3922C120.738 11.4464 120.881 11.4734 121.052 11.4734Z" fill="#163530"/>
<path d="M128.695 13.2279V12.2041H124.637V7.33306H125.716V11.1848H127.759V7.33306H128.839V11.2389H129.775V13.2279H128.695Z" fill="#163530"/>
<path d="M130.58 6.59339V5.59663H131.659V6.59339H130.58ZM130.58 12.2041V7.33306H131.659V12.2041H130.58Z" fill="#163530"/>
<path d="M135.895 12.2041V10.5804H135.031C134.92 10.5804 134.781 10.5774 134.614 10.5714C134.45 10.5654 134.296 10.5503 134.153 10.5263C133.779 10.4571 133.47 10.2933 133.225 10.0347C132.98 9.77308 132.858 9.41828 132.858 8.97026C132.858 8.53127 132.974 8.17797 133.207 7.91037C133.44 7.64276 133.743 7.47137 134.117 7.3962C134.272 7.36313 134.432 7.34509 134.596 7.34208C134.763 7.33607 134.902 7.33306 135.013 7.33306H136.975V12.2041H135.895ZM132.732 12.2041L133.888 10.3414H135.013L133.866 12.2041H132.732ZM134.919 9.72798H135.895V8.18549H134.919C134.862 8.18549 134.793 8.1885 134.712 8.19451C134.632 8.20052 134.551 8.21405 134.471 8.2351C134.384 8.26216 134.302 8.30877 134.224 8.37492C134.147 8.44107 134.082 8.52376 134.032 8.62298C133.981 8.7222 133.955 8.83496 133.955 8.96124C133.955 9.15067 134.009 9.30853 134.117 9.43482C134.227 9.55809 134.356 9.64078 134.502 9.68288C134.574 9.70092 134.647 9.71294 134.721 9.71896C134.799 9.72497 134.865 9.72798 134.919 9.72798Z" fill="#163530"/>
</svg>
