<svg width="47" height="47" viewBox="0 0 47 47" fill="none" xmlns="http://www.w3.org/2000/svg">
<path d="M47 23.5C47 29.7326 44.5241 35.7099 40.117 40.117C35.7099 44.5241 29.7326 47 23.5 47C17.2674 47 11.2901 44.5241 6.88299 40.117C2.47589 35.7099 0 29.7326 0 23.5C0 17.2674 2.47589 11.2901 6.88299 6.88299C11.2901 2.47589 17.2674 0 23.5 0C29.7326 0 35.7099 2.47589 40.117 6.88299C44.5241 11.2901 47 17.2674 47 23.5ZM24.3431 17.3489C22.0577 18.3006 17.4869 20.2687 10.6367 23.2533C9.52631 23.6939 8.94175 24.1286 8.88888 24.5516C8.80075 25.2654 9.69669 25.5474 10.9158 25.9323L11.4298 26.0938C12.6283 26.4845 14.2439 26.9398 15.0811 26.9574C15.8449 26.9751 16.6938 26.6637 17.6309 26.0174C24.0317 21.6964 27.3364 19.5138 27.542 19.4668C27.6889 19.4316 27.8945 19.3904 28.0296 19.5138C28.1677 19.6343 28.153 19.8663 28.1383 19.928C28.0502 20.3069 24.534 23.5734 22.7157 25.2654C22.1488 25.7942 21.7463 26.1673 21.6641 26.2524C21.4829 26.4375 21.2988 26.6197 21.1118 26.7988C19.9956 27.8739 19.1613 28.6788 21.1559 29.9948C22.1164 30.6293 22.8861 31.1493 23.6528 31.6721C24.487 32.242 25.3213 32.8089 26.4023 33.5198C26.6754 33.6961 26.9398 33.887 27.1954 34.0691C28.1677 34.7624 29.046 35.3851 30.1241 35.2853C30.7527 35.2265 31.4019 34.639 31.7309 32.8765C32.5093 28.7141 34.0397 19.6989 34.3923 15.9829C34.4138 15.674 34.401 15.3637 34.3541 15.0576C34.3264 14.8106 34.2069 14.5831 34.0192 14.4202C33.7519 14.2357 33.4333 14.1401 33.1086 14.147C32.2273 14.1617 30.8673 14.6346 24.3431 17.3489Z" fill="#163530"/>
</svg>
