<svg width="47" height="47" viewBox="0 0 47 47" fill="none" xmlns="http://www.w3.org/2000/svg">
<path fill-rule="evenodd" clip-rule="evenodd" d="M23.5 47C36.4787 47 47 36.4787 47 23.5C47 10.5213 36.4787 0 23.5 0C10.5213 0 0 10.5213 0 23.5C0 36.4787 10.5213 47 23.5 47ZM30.7536 16.5066C30.9046 16.6039 31.0604 16.6938 31.2206 16.7759C32.2625 17.2903 33.2801 17.447 33.7812 17.3932V21.3996C33.7812 21.3996 32.3509 21.341 31.2893 21.0618C29.8095 20.6697 28.8611 20.0677 28.8611 20.0677C28.8611 20.0677 28.2027 19.6363 28.1533 19.6069V27.8863C28.1533 28.3466 28.0302 29.498 27.6615 30.4579C27.3384 31.2789 26.8764 32.0393 26.2955 32.7066C26.2955 32.7066 25.386 33.8232 23.7887 34.5728C22.4565 35.198 21.2716 35.2321 20.8017 35.2457C20.7635 35.2468 20.73 35.2477 20.7016 35.2487C20.7016 35.2487 18.5146 35.3359 16.5421 34.0082L16.5322 33.9986V34.0082C15.8654 33.5473 15.2706 32.9917 14.7673 32.3589C14.143 31.5702 13.76 30.6347 13.6611 30.3606V30.3509C13.504 29.8853 13.1743 28.7588 13.2238 27.6714C13.3023 25.7558 13.9512 24.5754 14.1233 24.2817C14.5753 23.4763 15.1657 22.755 15.868 22.1507C16.6695 21.4851 17.6014 20.9914 18.6053 20.7006C19.609 20.4097 20.6627 20.328 21.7 20.4607L21.6951 24.57C21.3534 24.4597 20.9962 24.4038 20.6369 24.4042C18.7385 24.4042 17.1999 25.9375 17.1999 27.8309C17.1999 29.7246 18.7385 31.2579 20.6369 31.2579C21.2279 31.2586 21.809 31.1068 22.3228 30.8174C22.8156 30.5399 23.2322 30.1468 23.5358 29.6724C23.8393 29.1982 24.0205 28.6573 24.0634 28.0974V28.0886C24.0659 28.0768 24.0659 28.0651 24.0659 28.0538C24.0675 28.0264 24.0699 28.0029 24.0699 27.9774C24.0788 27.7729 24.0788 27.5658 24.0788 27.3562V11.75H28.1533C28.1469 11.75 28.1044 12.1367 28.2072 12.7345H28.2023C28.3253 13.4547 28.6595 14.4833 29.554 15.497C29.9115 15.88 30.3143 16.219 30.7536 16.5066Z" fill="#163530"/>
</svg>
