<svg width="20" height="27" viewBox="0 0 20 27" fill="none" xmlns="http://www.w3.org/2000/svg">
<path fill-rule="evenodd" clip-rule="evenodd" d="M10 27C8.89692 25.6762 8.0509 24.1537 7.54932 22.6473H0V3.44353C5.26952 5.85086 4.52836 12.8475 3.77414 18.409H7.83737L7.69852 13.1074C7.59523 11.1898 7.53948 9.25719 7.38314 7.36005C7.15178 4.55253 8.05815 2.12365 10 0C11.9419 2.12365 12.8482 4.55253 12.6169 7.36005C12.4605 9.25719 12.4048 11.1898 12.3015 13.1074L12.1626 18.409H16.2259C15.4716 12.8475 14.7305 5.85086 20 3.44353V22.6473H12.4507C11.9491 24.1537 11.1031 25.6762 10 27V27Z" fill="#163530"/>
</svg>
