<svg width="62" height="62" viewBox="0 0 62 62" fill="none" xmlns="http://www.w3.org/2000/svg">
<path d="M30.9993 24.8351C27.6009 24.8351 24.8337 27.6009 24.8337 30.9993C24.8337 34.3991 27.6009 37.1663 30.9993 37.1663C34.3991 37.1663 37.1649 34.3991 37.1649 30.9993C37.1649 27.6009 34.3991 24.8351 30.9993 24.8351ZM30.9993 24.8351C27.6009 24.8351 24.8337 27.6009 24.8337 30.9993C24.8337 34.3991 27.6009 37.1663 30.9993 37.1663C34.3991 37.1663 37.1649 34.3991 37.1649 30.9993C37.1649 27.6009 34.3991 24.8351 30.9993 24.8351ZM41.2707 14.7827H20.7292C17.4505 14.7827 14.7827 17.4505 14.7827 20.7292V41.2707C14.7827 44.5494 17.4505 47.2173 20.7292 47.2173H41.2707C44.5494 47.2173 47.2173 44.5494 47.2173 41.2707V20.7292C47.2173 17.4505 44.5494 14.7827 41.2707 14.7827ZM30.9993 41.6775C25.1126 41.6775 20.3225 36.8874 20.3225 30.9993C20.3225 25.1126 25.1126 20.3225 30.9993 20.3225C36.8874 20.3225 41.6775 25.1126 41.6775 30.9993C41.6775 36.8874 36.8874 41.6775 30.9993 41.6775ZM42.0204 22.5305C40.6273 22.5305 39.494 21.3972 39.494 20.0041C39.494 18.611 40.6273 17.4778 42.0204 17.4778C43.4135 17.4778 44.5467 18.611 44.5467 20.0041C44.5467 21.3972 43.4135 22.5305 42.0204 22.5305ZM30.9993 24.8351C27.6009 24.8351 24.8337 27.6009 24.8337 30.9993C24.8337 34.3991 27.6009 37.1663 30.9993 37.1663C34.3991 37.1663 37.1649 34.3991 37.1649 30.9993C37.1649 27.6009 34.3991 24.8351 30.9993 24.8351ZM41.2707 14.7827H20.7292C17.4505 14.7827 14.7827 17.4505 14.7827 20.7292V41.2707C14.7827 44.5494 17.4505 47.2173 20.7292 47.2173H41.2707C44.5494 47.2173 47.2173 44.5494 47.2173 41.2707V20.7292C47.2173 17.4505 44.5494 14.7827 41.2707 14.7827ZM30.9993 41.6775C25.1126 41.6775 20.3225 36.8874 20.3225 30.9993C20.3225 25.1126 25.1126 20.3225 30.9993 20.3225C36.8874 20.3225 41.6775 25.1126 41.6775 30.9993C41.6775 36.8874 36.8874 41.6775 30.9993 41.6775ZM42.0204 22.5305C40.6273 22.5305 39.494 21.3972 39.494 20.0041C39.494 18.611 40.6273 17.4778 42.0204 17.4778C43.4135 17.4778 44.5467 18.611 44.5467 20.0041C44.5467 21.3972 43.4135 22.5305 42.0204 22.5305ZM30.9993 24.8351C27.6009 24.8351 24.8337 27.6009 24.8337 30.9993C24.8337 34.3991 27.6009 37.1663 30.9993 37.1663C34.3991 37.1663 37.1649 34.3991 37.1649 30.9993C37.1649 27.6009 34.3991 24.8351 30.9993 24.8351ZM31 0C13.8792 0 0 13.8792 0 31V31C0 48.1208 13.8792 62 31 62V62C48.1208 62 62 48.1208 62 31V31C62 13.8792 48.1208 0 31 0V0ZM51.7286 41.2707C51.7286 47.0377 47.0377 51.7286 41.2707 51.7286H20.7292C14.9623 51.7286 10.2714 47.0377 10.2714 41.2707V20.7292C10.2714 14.9623 14.9623 10.2714 20.7292 10.2714H41.2707C47.0377 10.2714 51.7286 14.9623 51.7286 20.7292V41.2707ZM41.2707 14.7827H20.7292C17.4505 14.7827 14.7827 17.4505 14.7827 20.7292V41.2707C14.7827 44.5494 17.4505 47.2173 20.7292 47.2173H41.2707C44.5494 47.2173 47.2173 44.5494 47.2173 41.2707V20.7292C47.2173 17.4505 44.5494 14.7827 41.2707 14.7827ZM30.9993 41.6775C25.1126 41.6775 20.3225 36.8874 20.3225 30.9993C20.3225 25.1126 25.1126 20.3225 30.9993 20.3225C36.8874 20.3225 41.6775 25.1126 41.6775 30.9993C41.6775 36.8874 36.8874 41.6775 30.9993 41.6775ZM42.0204 22.5305C40.6273 22.5305 39.494 21.3972 39.494 20.0041C39.494 18.611 40.6273 17.4778 42.0204 17.4778C43.4135 17.4778 44.5467 18.611 44.5467 20.0041C44.5467 21.3972 43.4135 22.5305 42.0204 22.5305ZM30.9993 24.8351C27.6009 24.8351 24.8337 27.6009 24.8337 30.9993C24.8337 34.3991 27.6009 37.1663 30.9993 37.1663C34.3991 37.1663 37.1649 34.3991 37.1649 30.9993C37.1649 27.6009 34.3991 24.8351 30.9993 24.8351ZM30.9993 24.8351C27.6009 24.8351 24.8337 27.6009 24.8337 30.9993C24.8337 34.3991 27.6009 37.1663 30.9993 37.1663C34.3991 37.1663 37.1649 34.3991 37.1649 30.9993C37.1649 27.6009 34.3991 24.8351 30.9993 24.8351ZM30.9993 24.8351C27.6009 24.8351 24.8337 27.6009 24.8337 30.9993C24.8337 34.3991 27.6009 37.1663 30.9993 37.1663C34.3991 37.1663 37.1649 34.3991 37.1649 30.9993C37.1649 27.6009 34.3991 24.8351 30.9993 24.8351ZM41.2707 14.7827H20.7292C17.4505 14.7827 14.7827 17.4505 14.7827 20.7292V41.2707C14.7827 44.5494 17.4505 47.2173 20.7292 47.2173H41.2707C44.5494 47.2173 47.2173 44.5494 47.2173 41.2707V20.7292C47.2173 17.4505 44.5494 14.7827 41.2707 14.7827ZM30.9993 41.6775C25.1126 41.6775 20.3225 36.8874 20.3225 30.9993C20.3225 25.1126 25.1126 20.3225 30.9993 20.3225C36.8874 20.3225 41.6775 25.1126 41.6775 30.9993C41.6775 36.8874 36.8874 41.6775 30.9993 41.6775ZM42.0204 22.5305C40.6273 22.5305 39.494 21.3972 39.494 20.0041C39.494 18.611 40.6273 17.4778 42.0204 17.4778C43.4135 17.4778 44.5467 18.611 44.5467 20.0041C44.5467 21.3972 43.4135 22.5305 42.0204 22.5305ZM30.9993 24.8351C27.6009 24.8351 24.8337 27.6009 24.8337 30.9993C24.8337 34.3991 27.6009 37.1663 30.9993 37.1663C34.3991 37.1663 37.1649 34.3991 37.1649 30.9993C37.1649 27.6009 34.3991 24.8351 30.9993 24.8351ZM30.9993 24.8351C27.6009 24.8351 24.8337 27.6009 24.8337 30.9993C24.8337 34.3991 27.6009 37.1663 30.9993 37.1663C34.3991 37.1663 37.1649 34.3991 37.1649 30.9993C37.1649 27.6009 34.3991 24.8351 30.9993 24.8351ZM30.9993 24.8351C27.6009 24.8351 24.8337 27.6009 24.8337 30.9993C24.8337 34.3991 27.6009 37.1663 30.9993 37.1663C34.3991 37.1663 37.1649 34.3991 37.1649 30.9993C37.1649 27.6009 34.3991 24.8351 30.9993 24.8351ZM41.2707 14.7827H20.7292C17.4505 14.7827 14.7827 17.4505 14.7827 20.7292V41.2707C14.7827 44.5494 17.4505 47.2173 20.7292 47.2173H41.2707C44.5494 47.2173 47.2173 44.5494 47.2173 41.2707V20.7292C47.2173 17.4505 44.5494 14.7827 41.2707 14.7827ZM30.9993 41.6775C25.1126 41.6775 20.3225 36.8874 20.3225 30.9993C20.3225 25.1126 25.1126 20.3225 30.9993 20.3225C36.8874 20.3225 41.6775 25.1126 41.6775 30.9993C41.6775 36.8874 36.8874 41.6775 30.9993 41.6775ZM42.0204 22.5305C40.6273 22.5305 39.494 21.3972 39.494 20.0041C39.494 18.611 40.6273 17.4778 42.0204 17.4778C43.4135 17.4778 44.5467 18.611 44.5467 20.0041C44.5467 21.3972 43.4135 22.5305 42.0204 22.5305ZM30.9993 24.8351C27.6009 24.8351 24.8337 27.6009 24.8337 30.9993C24.8337 34.3991 27.6009 37.1663 30.9993 37.1663C34.3991 37.1663 37.1649 34.3991 37.1649 30.9993C37.1649 27.6009 34.3991 24.8351 30.9993 24.8351Z" fill="#FFE248"/>
</svg>
