<svg width="272" height="88" viewBox="0 0 184 60" fill="none" xmlns="http://www.w3.org/2000/svg">
<path d="M184 37.1946C184 49.7897 173.889 60 161.417 60L22.583 60C10.1107 60 3.75364e-06 49.7896 4.85474e-06 37.1946L8.10639e-06 -9.137e-07L184 1.51721e-05L184 37.1946Z" fill="#859578"/>
<path d="M28.0668 21.8816C27.9451 21.7764 27.7694 21.7653 27.6369 21.8562C26.9744 22.3108 25.8754 23.0984 25.4456 23.5322C26.0968 23.2036 27.518 22.586 28.4897 22.6989C29.4615 22.586 30.9077 23.2036 31.5589 23.5322C31.1281 23.0974 30.0252 22.3073 29.3632 21.8531C29.2328 21.7637 29.0602 21.7729 28.9385 21.8741L28.6057 22.1509C28.5386 22.2066 28.4416 22.2057 28.3757 22.1486L28.0668 21.8816Z" fill="#163530"/>
<path d="M27.1442 20.6879C27.0112 20.6879 26.9247 20.5465 26.9842 20.4264L27.3102 19.7685C27.4011 19.5849 27.5869 19.4689 27.7901 19.4689H29.2144C29.4176 19.4689 29.6034 19.5849 29.6944 19.7685L30.0203 20.4264C30.0798 20.5465 29.9933 20.6879 29.8603 20.6879L29.8357 20.6845C28.9426 20.5618 28.037 20.5629 27.1442 20.6879Z" fill="#163530"/>
<path fill-rule="evenodd" clip-rule="evenodd" d="M14.3746 29.4239C12.6032 19.9972 17.5572 12.9628 19.9922 10.7329C21.6022 9.25842 24.1068 6.99999 28.4897 7C32.8727 6.99999 35.4023 9.25842 37.0124 10.7329C39.4473 12.9628 44.4013 19.9972 42.63 29.4239C40.8713 38.7833 32.5497 47.625 28.4897 51C24.4298 47.625 16.1333 38.7833 14.3746 29.4239ZM24.0366 15.2025C24.9293 13.9153 25.6285 12.3732 26.0141 11.3836C26.1453 11.0469 26.3895 10.7657 26.711 10.6059C27.8405 10.0446 29.164 10.0446 30.2935 10.6059C30.615 10.7657 30.8593 11.0469 30.9905 11.3836C31.376 12.3732 32.0752 13.9153 32.9679 15.2025C31.5815 15.0692 29.0256 15.4343 29.7112 17.9235C29.7313 17.9966 29.7972 18.0492 29.8722 18.0528L33.9744 18.25C33.8402 18.0468 33.0887 17.6405 31.1563 17.6405C31.4918 16.9633 32.7264 16.0152 34.9809 17.6405C35.4506 18.0468 36.3094 19.0626 35.9873 19.8753L33.9744 21.9069C34.7796 21.7037 36.3497 21.8663 36.1886 24.1417C36.0276 26.4171 34.1086 28.4758 33.1692 29.2208C33.035 29.3562 32.6459 29.4646 32.1628 28.8145C31.5732 28.021 29.6526 26.5152 28.4897 26.5628C27.2375 26.5152 25.4313 28.021 24.8417 28.8145C24.3586 29.4646 23.9695 29.3562 23.8353 29.2208C22.8959 28.4758 20.9769 26.4171 20.8159 24.1417C20.6549 21.8663 22.2249 21.7037 23.0301 21.9069L21.0172 19.8753C20.6951 19.0626 21.554 18.0468 22.0236 17.6405C24.2781 16.0152 25.5127 16.9633 25.8482 17.6405C23.9158 17.6405 23.1643 18.0468 23.0301 18.25L27.1323 18.0528C27.2073 18.0492 27.2732 17.9966 27.2933 17.9235C27.9789 15.4343 25.423 15.0692 24.0366 15.2025ZM33.1614 43.7598C33.5636 43.6885 33.9661 43.381 34.0379 42.975L36.1823 30.852C33.8118 33.0454 32.1828 36.0722 31.9505 39.3116L31.7839 41.6358L29.8755 41.1678L30.2198 32.7436C30.2706 31.5 29.593 30.3424 28.4897 29.7879C27.344 30.34 26.6385 31.5329 26.7004 32.8136L27.104 41.1678L25.1956 41.6358L25.029 39.3116C24.7967 36.0722 23.3466 33.0454 20.9761 30.852L22.9499 42.9629C23.0169 43.3738 23.4227 43.689 23.8286 43.7617C24.4951 43.881 25.4079 44.1591 26.187 44.4199C27.2084 44.7617 28.026 45.5305 28.4897 46.5113C28.9535 45.5305 29.7711 44.7617 30.7925 44.4199C31.5757 44.1577 32.494 43.8781 33.1614 43.7598ZM24.0366 10.1234C23.9024 12.4259 21.9834 18.3312 15.381 23.5322C17.3939 21.2297 21.0844 15.9745 21.8895 13.374C20.5476 15.0671 17.1524 18.25 16.9913 18.25C16.7901 18.25 20.212 11.3424 24.0366 10.1234ZM41.6235 23.5322C35.0211 18.3312 33.1021 12.4259 32.9679 10.1234C36.7925 11.3424 40.2145 18.25 40.0132 18.25C39.8521 18.25 36.4569 15.0671 35.115 13.374C35.9201 15.9745 39.6106 21.2297 41.6235 23.5322Z" fill="#163530"/>
<path d="M28.0507 23.9237H28.83C29.2604 23.9237 29.6093 24.2761 29.6093 24.7108C28.8522 24.4448 28.0284 24.4448 27.2714 24.7108C27.2714 24.2761 27.6203 23.9237 28.0507 23.9237Z" fill="#163530"/>
<path d="M53.1407 30.2871V43.2177H55.3758V37.8156H61.9107V43.2177H64.1648V30.2871H61.9107V35.5551H55.3758V30.2871H53.1407Z" fill="#163530"/>
<path d="M71.0618 30.2871C68.0501 30.2871 66.781 31.743 66.781 33.8119C66.781 35.2294 67.3871 36.2256 68.5804 36.7236C67.406 37.2217 66.7431 38.2178 66.7431 39.6929C66.7431 41.7043 67.9743 43.2177 71.005 43.2177H77.483V40.9572H71.005C69.698 40.9572 69.0729 40.3442 69.0729 39.3289C69.0729 38.2753 69.7359 37.7581 71.0239 37.7581H77.3694V35.7084H71.0807C69.7927 35.7084 69.1297 35.2294 69.1297 34.1758C69.1297 33.1797 69.7169 32.5475 71.0618 32.5475H77.4641V30.2871H71.0618Z" fill="#163530"/>
<path d="M79.9712 30.2871V32.5475H86.3546C87.6994 32.5475 88.2866 33.1797 88.2866 34.1567C88.2866 35.2294 87.6426 35.7084 86.3356 35.7084H82.4526V37.7581H86.3925C87.6805 37.7581 88.3435 38.2753 88.3435 39.3098C88.3435 40.3442 87.7184 40.9572 86.4114 40.9572H79.9523V43.2177H86.4114C89.4231 43.2177 90.6733 41.6852 90.6733 39.7504C90.6733 38.1987 90.0293 37.2409 88.817 36.7236C89.9914 36.2256 90.6354 35.2869 90.6354 33.7544C90.6354 31.7621 89.3663 30.2871 86.3546 30.2871H79.9712Z" fill="#163530"/>
<path d="M94.6302 38.6584C93.721 40.6699 93.4179 40.9572 92.5466 40.9572H92.092V43.2177H92.5087C94.8007 43.2177 95.3879 42.1832 96.6191 39.3672L99.5172 32.7391C99.6876 32.3751 99.896 32.241 100.199 32.241C100.635 32.241 100.862 32.5092 100.862 32.9307V43.2177H103.116V32.8157C103.116 31.1683 102.188 30.0572 100.256 30.0572C98.5511 30.0572 98.0776 30.9384 97.4336 32.3943L94.6302 38.6584Z" fill="#163530"/>
<path d="M116.686 43.2177H119.167L114.848 31.7238C114.432 30.4978 113.522 30.0572 112.196 30.0572C110.852 30.0572 109.942 30.4978 109.507 31.7238L105.018 43.2177H107.48L108.522 40.5549H115.682L116.686 43.2177ZM111.533 32.8157C111.666 32.5092 111.874 32.3751 112.177 32.3751C112.481 32.3751 112.689 32.5092 112.803 32.8157L114.886 38.4094H109.355L111.533 32.8157Z" fill="#163530"/>
<path d="M123.262 33.0648C123.262 32.5667 123.584 32.241 124.171 32.241C124.682 32.241 124.967 32.5092 125.061 32.9307L126.88 40.8423C127.258 42.5089 128.187 43.4476 129.967 43.4476C131.729 43.4476 132.6 42.5472 132.998 40.8423L134.835 32.9307C134.93 32.5092 135.195 32.241 135.725 32.241C136.313 32.241 136.635 32.5667 136.635 33.0648V43.2177H138.851V32.9498C138.851 31.2257 137.847 30.0572 135.782 30.0572C133.945 30.0572 132.998 30.9767 132.638 32.605L130.838 40.5166C130.725 40.9764 130.46 41.2446 129.986 41.2446C129.513 41.2446 129.247 40.9764 129.134 40.5166L127.334 32.605C126.974 30.9767 125.933 30.0572 124.114 30.0572C122.05 30.0572 121.046 31.2257 121.046 32.9498V43.2177H123.262V33.0648Z" fill="#163530"/>
<path d="M141.93 30.2871V43.2177H144.165V37.8156H150.7V43.2177H152.954V30.2871H150.7V35.5551H144.165V30.2871H141.93Z" fill="#163530"/>
<path d="M166.519 43.2177H169L164.681 31.7238C164.265 30.4978 163.355 30.0572 162.029 30.0572C160.685 30.0572 159.775 30.4978 159.34 31.7238L154.851 43.2177H157.313L158.355 40.5549H165.515L166.519 43.2177ZM161.366 32.8157C161.499 32.5092 161.707 32.3751 162.01 32.3751C162.314 32.3751 162.522 32.5092 162.636 32.8157L164.719 38.4094H159.188L161.366 32.8157Z" fill="#163530"/>
<path d="M52.2919 20.7687V13.4414H57.1371V14.5913H53.5045V16.1688H55.2856C55.3527 16.1688 55.4415 16.1722 55.5522 16.1789C55.6663 16.1823 55.7703 16.1891 55.8642 16.1993C56.27 16.2468 56.6088 16.3774 56.8805 16.5911C57.1556 16.8048 57.3619 17.0745 57.4994 17.4002C57.6403 17.7258 57.7107 18.082 57.7107 18.4687C57.7107 18.8555 57.6419 19.2133 57.5044 19.5424C57.3669 19.8681 57.1606 20.1377 56.8855 20.3515C56.6139 20.5618 56.2734 20.6907 55.8642 20.7382C55.7703 20.7484 55.668 20.7568 55.5573 20.7636C55.4466 20.767 55.356 20.7687 55.2856 20.7687H52.2919ZM53.5045 19.6187H55.2353C55.3023 19.6187 55.3778 19.6153 55.4617 19.6085C55.5455 19.6018 55.6227 19.5916 55.6931 19.578C55.995 19.5136 56.203 19.3711 56.317 19.1506C56.431 18.9301 56.4881 18.7028 56.4881 18.4687C56.4881 18.2313 56.431 18.004 56.317 17.7869C56.203 17.5664 55.995 17.4239 55.6931 17.3595C55.6227 17.3425 55.5455 17.3323 55.4617 17.3289C55.3778 17.3221 55.3023 17.3187 55.2353 17.3187H53.5045V19.6187Z" fill="#163530"/>
<path d="M58.2156 20.7687V19.7408C58.4135 19.7782 58.5661 19.7748 58.6734 19.7307C58.7808 19.6832 58.8613 19.595 58.9149 19.4661C58.9686 19.3372 59.0156 19.1658 59.0558 18.9521C59.1095 18.6502 59.1564 18.3025 59.1967 17.909C59.2403 17.5155 59.2772 17.0949 59.3074 16.6471C59.3409 16.1993 59.3711 15.7413 59.3979 15.2732H63.3979V20.7687H62.1904V16.4232H60.4646C60.4478 16.6437 60.4277 16.8913 60.4042 17.1661C60.3807 17.4375 60.3556 17.7123 60.3288 17.9904C60.3019 18.2686 60.2717 18.5332 60.2382 18.7842C60.208 19.0319 60.1761 19.2439 60.1426 19.4203C60.0654 19.8172 59.9548 20.131 59.8105 20.3616C59.6696 20.5923 59.4717 20.7399 59.2168 20.8043C58.9619 20.8722 58.6281 20.8603 58.2156 20.7687Z" fill="#163530"/>
<path d="M66.3309 20.9214C65.9384 20.9214 65.6064 20.8467 65.3347 20.6975C65.063 20.5448 64.8567 20.343 64.7158 20.0919C64.5783 19.8409 64.5095 19.5644 64.5095 19.2625C64.5095 18.9979 64.5531 18.7605 64.6403 18.5501C64.7276 18.3364 64.8617 18.1533 65.0429 18.0006C65.224 17.8446 65.4588 17.7173 65.7473 17.619C65.9653 17.5477 66.2202 17.4833 66.512 17.4256C66.8072 17.3679 67.1259 17.3154 67.468 17.2679C67.8135 17.217 68.1741 17.1627 68.5497 17.105L68.117 17.3544C68.1204 16.9744 68.0365 16.6946 67.8655 16.5148C67.6944 16.335 67.4059 16.2451 67.0001 16.2451C66.7552 16.2451 66.5187 16.3028 66.2906 16.4181C66.0626 16.5334 65.9032 16.7319 65.8127 17.0134L64.7058 16.6623C64.8399 16.1976 65.0948 15.8244 65.4705 15.5429C65.8496 15.2613 66.3594 15.1205 67.0001 15.1205C67.4831 15.1205 67.9074 15.2003 68.273 15.3597C68.642 15.5191 68.9154 15.7803 69.0931 16.1433C69.1904 16.3367 69.2491 16.5351 69.2692 16.7387C69.2894 16.9388 69.2994 17.1576 69.2994 17.3951V20.7687H68.2378V19.578L68.4139 19.7714C68.169 20.1683 67.8822 20.46 67.5535 20.6466C67.2282 20.8298 66.8206 20.9214 66.3309 20.9214ZM66.5724 19.9444C66.8475 19.9444 67.0823 19.8952 67.2768 19.7968C67.4713 19.6984 67.6256 19.578 67.7397 19.4355C67.8571 19.2931 67.9359 19.1591 67.9762 19.0336C68.0399 18.8775 68.0751 18.6994 68.0818 18.4993C68.0919 18.2957 68.0969 18.1312 68.0969 18.0057L68.4692 18.1176C68.1036 18.1753 67.79 18.2262 67.5284 18.2703C67.2667 18.3144 67.042 18.3568 66.8542 18.3975C66.6663 18.4348 66.5003 18.4772 66.3561 18.5247C66.2152 18.5756 66.0961 18.635 65.9988 18.7028C65.9015 18.7706 65.8261 18.8487 65.7724 18.9369C65.7221 19.0251 65.6969 19.1285 65.6969 19.2473C65.6969 19.383 65.7305 19.5034 65.7976 19.6085C65.8647 19.7103 65.9619 19.7917 66.0894 19.8528C66.2202 19.9138 66.3812 19.9444 66.5724 19.9444Z" fill="#163530"/>
<path d="M70.6093 20.7687V15.2732H74.4835V16.4232H71.8219V20.7687H70.6093Z" fill="#163530"/>
<path d="M77.7459 20.9214C77.2025 20.9214 76.7279 20.7975 76.322 20.5499C75.9161 20.3023 75.6008 19.9613 75.3761 19.5271C75.1547 19.0895 75.044 18.5875 75.044 18.021C75.044 17.4443 75.1581 16.9388 75.3861 16.5046C75.6142 16.0704 75.9312 15.7312 76.3371 15.4869C76.743 15.2427 77.2125 15.1205 77.7459 15.1205C78.2926 15.1205 78.7689 15.2444 79.1748 15.492C79.5807 15.7396 79.896 16.0823 80.1207 16.5199C80.3454 16.9541 80.4578 17.4544 80.4578 18.021C80.4578 18.5909 80.3438 19.0946 80.1157 19.5322C79.8909 19.9664 79.5756 20.3074 79.1698 20.555C78.7639 20.7992 78.2893 20.9214 77.7459 20.9214ZM77.7459 19.7714C78.2289 19.7714 78.5878 19.6085 78.8226 19.2829C79.0574 18.9572 79.1748 18.5366 79.1748 18.021C79.1748 17.4884 79.0557 17.0643 78.8176 16.7488C78.5794 16.43 78.2222 16.2705 77.7459 16.2705C77.4205 16.2705 77.1522 16.3452 76.9409 16.4944C76.7329 16.6403 76.5786 16.8455 76.478 17.1101C76.3773 17.3713 76.327 17.6749 76.327 18.021C76.327 18.5535 76.4461 18.9793 76.6842 19.2981C76.9258 19.6136 77.2796 19.7714 77.7459 19.7714Z" fill="#163530"/>
<path d="M81.1638 21.9899V19.807C81.459 19.807 81.6687 19.7052 81.7928 19.5017C81.9169 19.2981 82.0158 18.9454 82.0896 18.4433C82.1366 18.1448 82.1752 17.8293 82.2053 17.4968C82.2355 17.1644 82.2607 16.8133 82.2808 16.4435C82.3043 16.0738 82.3244 15.6837 82.3412 15.2732H86.3864V19.807H86.9349V21.9899H85.7877V20.7687H82.306V21.9899H81.1638ZM82.789 19.807H85.1789V16.2349H83.4028C83.3927 16.4384 83.381 16.6471 83.3676 16.8608C83.3542 17.0711 83.3391 17.2814 83.3223 17.4918C83.3055 17.7021 83.2871 17.9039 83.267 18.0973C83.2502 18.2872 83.2301 18.4636 83.2066 18.6265C83.1697 18.9114 83.1244 19.1455 83.0707 19.3287C83.0171 19.5119 82.9232 19.6713 82.789 19.807Z" fill="#163530"/>
<path d="M88.0447 14.4387V13.3141H89.2572V14.4387H88.0447ZM88.0447 20.7687V15.2732H89.2572V20.7687H88.0447Z" fill="#163530"/>
<path d="M93.275 14.6524C92.9966 14.6524 92.7417 14.5829 92.5103 14.4438C92.2788 14.3047 92.0943 14.1198 91.9568 13.8891C91.8193 13.6551 91.7505 13.3956 91.7505 13.1106H92.6964C92.6964 13.2734 92.7518 13.4125 92.8625 13.5279C92.9765 13.6398 93.114 13.6958 93.275 13.6958C93.436 13.6958 93.5719 13.6398 93.6826 13.5279C93.7966 13.4125 93.8537 13.2734 93.8537 13.1106H94.7995C94.7995 13.3956 94.7308 13.6551 94.5933 13.8891C94.4557 14.1198 94.2713 14.3047 94.0398 14.4438C93.8084 14.5829 93.5534 14.6524 93.275 14.6524ZM95.4738 15.2732V20.7687H94.3115V17.1814L91.7254 20.7687H90.7543V15.2732H91.9166V18.769L94.5128 15.2732H95.4738Z" fill="#163530"/>
<path d="M96.8765 20.7687V15.2732H98.0891V17.4409H100.529V15.2732H101.742V20.7687H100.529V18.5909H98.0891V20.7687H96.8765Z" fill="#163530"/>
<path d="M104.666 20.9214C104.273 20.9214 103.941 20.8467 103.67 20.6975C103.398 20.5448 103.192 20.343 103.051 20.0919C102.913 19.8409 102.844 19.5644 102.844 19.2625C102.844 18.9979 102.888 18.7605 102.975 18.5501C103.062 18.3364 103.197 18.1533 103.378 18.0006C103.559 17.8446 103.794 17.7173 104.082 17.619C104.3 17.5477 104.555 17.4833 104.847 17.4256C105.142 17.3679 105.461 17.3154 105.803 17.2679C106.148 17.217 106.509 17.1627 106.885 17.105L106.452 17.3544C106.455 16.9744 106.371 16.6946 106.2 16.5148C106.029 16.335 105.741 16.2451 105.335 16.2451C105.09 16.2451 104.854 16.3028 104.626 16.4181C104.397 16.5334 104.238 16.7319 104.148 17.0134L103.041 16.6623C103.175 16.1976 103.43 15.8244 103.805 15.5429C104.184 15.2613 104.694 15.1205 105.335 15.1205C105.818 15.1205 106.242 15.2003 106.608 15.3597C106.977 15.5191 107.25 15.7803 107.428 16.1433C107.525 16.3367 107.584 16.5351 107.604 16.7387C107.624 16.9388 107.634 17.1576 107.634 17.3951V20.7687H106.573V19.578L106.749 19.7714C106.504 20.1683 106.217 20.46 105.888 20.6466C105.563 20.8298 105.156 20.9214 104.666 20.9214ZM104.907 19.9444C105.182 19.9444 105.417 19.8952 105.612 19.7968C105.806 19.6984 105.961 19.578 106.075 19.4355C106.192 19.2931 106.271 19.1591 106.311 19.0336C106.375 18.8775 106.41 18.6994 106.417 18.4993C106.427 18.2957 106.432 18.1312 106.432 18.0057L106.804 18.1176C106.439 18.1753 106.125 18.2262 105.863 18.2703C105.602 18.3144 105.377 18.3568 105.189 18.3975C105.001 18.4348 104.835 18.4772 104.691 18.5247C104.55 18.5756 104.431 18.635 104.334 18.7028C104.236 18.7706 104.161 18.8487 104.107 18.9369C104.057 19.0251 104.032 19.1285 104.032 19.2473C104.032 19.383 104.065 19.5034 104.132 19.6085C104.2 19.7103 104.297 19.7917 104.424 19.8528C104.555 19.9138 104.716 19.9444 104.907 19.9444Z" fill="#163530"/>
<path d="M113.359 20.9214C112.815 20.9214 112.341 20.7975 111.935 20.5499C111.529 20.3023 111.214 19.9613 110.989 19.5271C110.768 19.0895 110.657 18.5875 110.657 18.021C110.657 17.4443 110.771 16.9388 110.999 16.5046C111.227 16.0704 111.544 15.7312 111.95 15.4869C112.356 15.2427 112.825 15.1205 113.359 15.1205C113.905 15.1205 114.382 15.2444 114.788 15.492C115.194 15.7396 115.509 16.0823 115.734 16.5199C115.958 16.9541 116.071 17.4544 116.071 18.021C116.071 18.5909 115.957 19.0946 115.729 19.5322C115.504 19.9664 115.188 20.3074 114.783 20.555C114.377 20.7992 113.902 20.9214 113.359 20.9214ZM113.359 19.7714C113.842 19.7714 114.201 19.6085 114.435 19.2829C114.67 18.9572 114.788 18.5366 114.788 18.021C114.788 17.4884 114.669 17.0643 114.43 16.7488C114.192 16.43 113.835 16.2705 113.359 16.2705C113.033 16.2705 112.765 16.3452 112.554 16.4944C112.346 16.6403 112.191 16.8455 112.091 17.1101C111.99 17.3713 111.94 17.6749 111.94 18.021C111.94 18.5535 112.059 18.9793 112.297 19.2981C112.539 19.6136 112.892 19.7714 113.359 19.7714Z" fill="#163530"/>
<path d="M119.79 20.9214C119.261 20.9214 118.816 20.7941 118.457 20.5397C118.098 20.2853 117.828 19.9393 117.647 19.5017C117.466 19.0607 117.375 18.5671 117.375 18.021C117.375 17.468 117.466 16.9727 117.647 16.5351C117.828 16.0975 118.093 15.7532 118.442 15.5022C118.794 15.2478 119.229 15.1205 119.745 15.1205C120.258 15.1205 120.703 15.2478 121.079 15.5022C121.458 15.7532 121.751 16.0975 121.959 16.5351C122.167 16.9693 122.271 17.4646 122.271 18.021C122.271 18.5705 122.169 19.0641 121.964 19.5017C121.759 19.9393 121.471 20.2853 121.099 20.5397C120.726 20.7941 120.29 20.9214 119.79 20.9214ZM117.169 23.2112V15.2732H118.241V19.1302H118.392V23.2112H117.169ZM119.604 19.8223C119.92 19.8223 120.18 19.7425 120.384 19.5831C120.589 19.4237 120.74 19.2083 120.837 18.9369C120.938 18.6621 120.988 18.3568 120.988 18.021C120.988 17.6885 120.938 17.3866 120.837 17.1152C120.736 16.8404 120.58 16.6233 120.369 16.4639C120.158 16.3011 119.889 16.2196 119.564 16.2196C119.255 16.2196 119.004 16.296 118.809 16.4486C118.615 16.5979 118.471 16.8082 118.377 17.0796C118.286 17.3476 118.241 17.6614 118.241 18.021C118.241 18.3771 118.286 18.6909 118.377 18.9623C118.471 19.2337 118.617 19.4457 118.814 19.5984C119.016 19.7476 119.279 19.8223 119.604 19.8223Z" fill="#163530"/>
<path d="M123.38 20.7687V15.2732H127.254V16.4232H124.593V20.7687H123.38Z" fill="#163530"/>
<path d="M129.607 20.9214C129.214 20.9214 128.882 20.8467 128.61 20.6975C128.339 20.5448 128.132 20.343 127.992 20.0919C127.854 19.8409 127.785 19.5644 127.785 19.2625C127.785 18.9979 127.829 18.7605 127.916 18.5501C128.003 18.3364 128.137 18.1533 128.319 18.0006C128.5 17.8446 128.734 17.7173 129.023 17.619C129.241 17.5477 129.496 17.4833 129.788 17.4256C130.083 17.3679 130.402 17.3154 130.744 17.2679C131.089 17.217 131.45 17.1627 131.825 17.105L131.393 17.3544C131.396 16.9744 131.312 16.6946 131.141 16.5148C130.97 16.335 130.682 16.2451 130.276 16.2451C130.031 16.2451 129.794 16.3028 129.566 16.4181C129.338 16.5334 129.179 16.7319 129.088 17.0134L127.981 16.6623C128.116 16.1976 128.371 15.8244 128.746 15.5429C129.125 15.2613 129.635 15.1205 130.276 15.1205C130.759 15.1205 131.183 15.2003 131.549 15.3597C131.918 15.5191 132.191 15.7803 132.369 16.1433C132.466 16.3367 132.525 16.5351 132.545 16.7387C132.565 16.9388 132.575 17.1576 132.575 17.3951V20.7687H131.513V19.578L131.69 19.7714C131.445 20.1683 131.158 20.46 130.829 20.6466C130.504 20.8298 130.096 20.9214 129.607 20.9214ZM129.848 19.9444C130.123 19.9444 130.358 19.8952 130.552 19.7968C130.747 19.6984 130.901 19.578 131.015 19.4355C131.133 19.2931 131.212 19.1591 131.252 19.0336C131.316 18.8775 131.351 18.6994 131.358 18.4993C131.368 18.2957 131.373 18.1312 131.373 18.0057L131.745 18.1176C131.379 18.1753 131.066 18.2262 130.804 18.2703C130.542 18.3144 130.318 18.3568 130.13 18.3975C129.942 18.4348 129.776 18.4772 129.632 18.5247C129.491 18.5756 129.372 18.635 129.275 18.7028C129.177 18.7706 129.102 18.8487 129.048 18.9369C128.998 19.0251 128.973 19.1285 128.973 19.2473C128.973 19.383 129.006 19.5034 129.073 19.6085C129.14 19.7103 129.238 19.7917 129.365 19.8528C129.496 19.9138 129.657 19.9444 129.848 19.9444Z" fill="#163530"/>
<path d="M133.875 20.7687V15.2732H135.088V17.4409H137.528V15.2732H138.74V20.7687H137.528V18.5909H135.088V20.7687H133.875Z" fill="#163530"/>
<path d="M140.245 14.4387V13.3141H141.458V14.4387H140.245ZM140.245 20.7687V15.2732H141.458V20.7687H140.245Z" fill="#163530"/>
<path d="M144.897 20.9214C144.381 20.9214 143.909 20.8111 143.483 20.5906C143.057 20.3701 142.722 20.0682 142.477 19.6849L143.433 19.0386C143.628 19.2727 143.844 19.4542 144.082 19.5831C144.32 19.7086 144.585 19.7714 144.877 19.7714C145.182 19.7714 145.422 19.7035 145.597 19.5678C145.771 19.4321 145.858 19.2507 145.858 19.0234C145.858 18.8232 145.799 18.6824 145.682 18.601C145.565 18.5162 145.41 18.4653 145.219 18.4484C145.028 18.4314 144.823 18.4229 144.605 18.4229H144.203V17.451H144.6C144.906 17.451 145.16 17.4154 145.365 17.3442C145.573 17.273 145.677 17.1152 145.677 16.871C145.677 16.6505 145.597 16.4944 145.436 16.4028C145.275 16.3078 145.087 16.2604 144.872 16.2604C144.61 16.2604 144.352 16.3163 144.097 16.4283C143.842 16.5402 143.614 16.6759 143.413 16.8353L142.729 16.0008C143.031 15.7295 143.368 15.5157 143.74 15.3597C144.112 15.2003 144.51 15.1205 144.932 15.1205C145.281 15.1205 145.607 15.1816 145.908 15.3037C146.214 15.4258 146.459 15.609 146.643 15.8533C146.831 16.0975 146.925 16.3994 146.925 16.759C146.925 17.0168 146.869 17.2594 146.759 17.4867C146.651 17.7139 146.479 17.9294 146.241 18.1329L146.225 17.736C146.41 17.814 146.566 17.9226 146.693 18.0617C146.824 18.2007 146.923 18.3636 146.99 18.5501C147.061 18.7367 147.096 18.9352 147.096 19.1455C147.096 19.5288 146.995 19.8528 146.794 20.1174C146.593 20.382 146.324 20.5821 145.989 20.7178C145.657 20.8535 145.293 20.9214 144.897 20.9214Z" fill="#163530"/>
<path d="M149.722 20.9214C149.33 20.9214 148.998 20.8467 148.726 20.6975C148.454 20.5448 148.248 20.343 148.107 20.0919C147.97 19.8409 147.901 19.5644 147.901 19.2625C147.901 18.9979 147.945 18.7605 148.032 18.5501C148.119 18.3364 148.253 18.1533 148.434 18.0006C148.615 17.8446 148.85 17.7173 149.139 17.619C149.357 17.5477 149.612 17.4833 149.903 17.4256C150.199 17.3679 150.517 17.3154 150.859 17.2679C151.205 17.217 151.566 17.1627 151.941 17.105L151.508 17.3544C151.512 16.9744 151.428 16.6946 151.257 16.5148C151.086 16.335 150.797 16.2451 150.392 16.2451C150.147 16.2451 149.91 16.3028 149.682 16.4181C149.454 16.5334 149.295 16.7319 149.204 17.0134L148.097 16.6623C148.231 16.1976 148.486 15.8244 148.862 15.5429C149.241 15.2613 149.751 15.1205 150.392 15.1205C150.875 15.1205 151.299 15.2003 151.664 15.3597C152.033 15.5191 152.307 15.7803 152.485 16.1433C152.582 16.3367 152.641 16.5351 152.661 16.7387C152.681 16.9388 152.691 17.1576 152.691 17.3951V20.7687H151.629V19.578L151.805 19.7714C151.56 20.1683 151.274 20.46 150.945 20.6466C150.62 20.8298 150.212 20.9214 149.722 20.9214ZM149.964 19.9444C150.239 19.9444 150.474 19.8952 150.668 19.7968C150.863 19.6984 151.017 19.578 151.131 19.4355C151.249 19.2931 151.327 19.1591 151.368 19.0336C151.431 18.8775 151.467 18.6994 151.473 18.4993C151.483 18.2957 151.488 18.1312 151.488 18.0057L151.861 18.1176C151.495 18.1753 151.181 18.2262 150.92 18.2703C150.658 18.3144 150.433 18.3568 150.246 18.3975C150.058 18.4348 149.892 18.4772 149.748 18.5247C149.607 18.5756 149.488 18.635 149.39 18.7028C149.293 18.7706 149.218 18.8487 149.164 18.9369C149.114 19.0251 149.088 19.1285 149.088 19.2473C149.088 19.383 149.122 19.5034 149.189 19.6085C149.256 19.7103 149.353 19.7917 149.481 19.8528C149.612 19.9138 149.773 19.9444 149.964 19.9444Z" fill="#163530"/>
<path d="M158.549 21.9238V20.7687H153.991V15.2732H155.203V19.6187H157.498V15.2732H158.71V19.6798H159.762V21.9238H158.549Z" fill="#163530"/>
<path d="M160.666 14.4387V13.3141H161.878V14.4387H160.666ZM160.666 20.7687V15.2732H161.878V20.7687H160.666Z" fill="#163530"/>
<path d="M166.636 20.7687V18.9369H165.665C165.541 18.9369 165.385 18.9335 165.197 18.9267C165.012 18.9199 164.84 18.9029 164.679 18.8758C164.259 18.7978 163.912 18.6129 163.637 18.3212C163.362 18.026 163.224 17.6257 163.224 17.1203C163.224 16.625 163.355 16.2264 163.617 15.9245C163.879 15.6226 164.219 15.4292 164.638 15.3444C164.813 15.3071 164.992 15.2868 165.177 15.2834C165.365 15.2766 165.52 15.2732 165.645 15.2732H167.848V20.7687H166.636ZM163.084 20.7687L164.382 18.6672H165.645L164.357 20.7687H163.084ZM165.539 17.9752H166.636V16.2349H165.539C165.475 16.2349 165.398 16.2383 165.307 16.2451C165.217 16.2519 165.126 16.2671 165.036 16.2909C164.939 16.3214 164.846 16.374 164.759 16.4486C164.672 16.5233 164.6 16.6165 164.543 16.7285C164.486 16.8404 164.457 16.9676 164.457 17.1101C164.457 17.3238 164.518 17.5019 164.638 17.6444C164.762 17.7835 164.907 17.8768 165.071 17.9243C165.152 17.9446 165.234 17.9582 165.318 17.965C165.405 17.9718 165.479 17.9752 165.539 17.9752Z" fill="#163530"/>
</svg>
