<svg width="27" height="33" viewBox="0 0 27 33" fill="none" xmlns="http://www.w3.org/2000/svg">
<path d="M6.68713 21.2312C6.68713 20.6832 6.30496 20.3564 5.63066 20.3564C5.35532 20.3564 5.16884 20.3834 5.0713 20.4093V22.1676C5.18679 22.1935 5.32877 22.2021 5.52446 22.2021C6.24319 22.2021 6.68713 21.8408 6.68713 21.2312Z" fill="#163530"/>
<path d="M10.8613 20.3748C10.5594 20.3748 10.3642 20.4007 10.2488 20.4276V24.3219C10.3643 24.3488 10.5508 24.3488 10.7194 24.3488C11.9444 24.3575 12.7433 23.6865 12.7433 22.2647C12.752 21.0284 12.0239 20.3748 10.8613 20.3748Z" fill="#163530"/>
<path d="M18.6168 0H5.29678C3.35086 0 1.76708 1.57704 1.76708 3.51225V16.5H1.42233C0.636948 16.5 0 17.1331 0 17.9153V26.4986C0 27.2807 0.63688 27.9139 1.42233 27.9139H1.76708V29.4877C1.76708 31.4251 3.35086 33 5.29678 33H23.4713C25.416 33 27 31.425 27 29.4877V8.31258L18.6168 0ZM3.73137 19.4643C4.14821 19.3942 4.73412 19.3414 5.55961 19.3414C6.39383 19.3414 6.98841 19.4998 7.38791 19.8181C7.76953 20.118 8.02706 20.6131 8.02706 21.1957C8.02706 21.7782 7.83192 22.2734 7.47685 22.6088C7.01503 23.0414 6.33206 23.2356 5.53313 23.2356C5.35532 23.2356 5.19594 23.2268 5.0713 23.2096V25.338H3.73137V19.4643ZM23.4713 30.849H5.29678C4.54331 30.849 3.92975 30.2385 3.92975 29.4877V27.9139H20.8722C21.6577 27.9139 22.2946 27.2807 22.2946 26.4986V17.9153C22.2946 17.1331 21.6577 16.5 20.8722 16.5H3.92975V3.51225C3.92975 2.7636 4.54338 2.15307 5.29678 2.15307L17.8081 2.14007V6.74183C17.8081 8.08595 18.9041 9.17758 20.2559 9.17758L24.7862 9.16465L24.8372 29.4877C24.8372 30.2385 24.2247 30.849 23.4713 30.849ZM8.89107 25.311V19.4643C9.38804 19.3856 10.0358 19.3414 10.7194 19.3414C11.8554 19.3414 12.5921 19.5442 13.1694 19.9767C13.7905 20.4362 14.1808 21.1687 14.1808 22.2204C14.1808 23.3595 13.7639 24.146 13.1866 24.6313C12.5568 25.1523 11.598 25.3994 10.4266 25.3994C9.72515 25.3994 9.22818 25.3552 8.89107 25.311ZM18.5778 21.8494V22.9443H16.4297V25.338H15.0719V19.3856H18.7285V20.4891H16.4297V21.8494H18.5778Z" fill="#163530"/>
</svg>
