<svg width="62" height="62" viewBox="0 0 62 62" fill="none" xmlns="http://www.w3.org/2000/svg">
<path d="M62 31C62 39.2217 58.7339 47.1067 52.9203 52.9203C47.1067 58.7339 39.2217 62 31 62C22.7783 62 14.8933 58.7339 9.07969 52.9203C3.26606 47.1067 0 39.2217 0 31C0 22.7783 3.26606 14.8933 9.07969 9.07969C14.8933 3.26606 22.7783 0 31 0C39.2217 0 47.1067 3.26606 52.9203 9.07969C58.7339 14.8933 62 22.7783 62 31ZM32.1121 22.8858C29.0974 24.1413 23.0679 26.7375 14.0314 30.6745C12.5666 31.2557 11.7955 31.8292 11.7257 32.3872C11.6095 33.3289 12.7914 33.7009 14.3995 34.2085L15.0776 34.4216C16.6586 34.937 18.7899 35.5376 19.8942 35.5609C20.9017 35.5841 22.0216 35.1734 23.2577 34.3209C31.7014 28.6208 36.0607 25.7416 36.332 25.6796C36.5257 25.6331 36.797 25.5789 36.9752 25.7416C37.1574 25.9005 37.138 26.2066 37.1186 26.288C37.0024 26.7879 32.364 31.0969 29.9654 33.3289C29.2175 34.0264 28.6866 34.5185 28.5781 34.6309C28.3392 34.875 28.0963 35.1153 27.8496 35.3516C26.3771 36.7699 25.2766 37.8316 27.9077 39.5676C29.1749 40.4046 30.1901 41.0905 31.2015 41.7802C32.302 42.532 33.4025 43.2799 34.8285 44.2176C35.1889 44.4501 35.5376 44.702 35.8748 44.9422C37.1574 45.8567 38.316 46.6783 39.7381 46.5465C40.5674 46.469 41.4237 45.694 41.8577 43.369C42.8846 37.8781 44.9035 25.9857 45.3685 21.0839C45.3969 20.6764 45.38 20.267 45.3181 19.8632C45.2816 19.5374 45.124 19.2373 44.8764 19.0224C44.5238 18.779 44.1035 18.6529 43.6751 18.662C42.5126 18.6814 40.7185 19.3053 32.1121 22.8858Z" fill="#FFE248"/>
</svg>
