<svg width="62" height="62" viewBox="0 0 62 62" fill="none" xmlns="http://www.w3.org/2000/svg">
<path fill-rule="evenodd" clip-rule="evenodd" d="M31 62C48.1208 62 62 48.1208 62 31C62 13.8792 48.1208 0 31 0C13.8792 0 0 13.8792 0 31C0 48.1208 13.8792 62 31 62ZM40.5685 21.7746C40.7678 21.9031 40.9733 22.0216 41.1846 22.1299C42.559 22.8084 43.9015 23.0151 44.5625 22.9442V28.2293C44.5625 28.2293 42.6756 28.1519 41.2752 27.7837C39.3232 27.2664 38.072 26.4722 38.072 26.4722C38.072 26.4722 37.2036 25.9032 37.1384 25.8644V36.7862C37.1384 37.3934 36.976 38.9122 36.4897 40.1785C36.0635 41.2615 35.454 42.2646 34.6877 43.1449C34.6877 43.1449 33.488 44.6178 31.3808 45.6067C29.6235 46.4314 28.0604 46.4763 27.4405 46.4943C27.3901 46.4957 27.346 46.4969 27.3085 46.4983C27.3085 46.4983 24.4236 46.6133 21.8215 44.8619L21.8085 44.8492V44.8619C20.9288 44.2539 20.1443 43.5209 19.4802 42.6863C18.6567 41.6458 18.1515 40.4117 18.0211 40.0501V40.0373C17.8138 39.4231 17.3788 37.9371 17.4441 36.5027C17.5477 33.9758 18.4038 32.4186 18.6307 32.0312C19.2269 30.9688 20.0058 30.0173 20.9322 29.22C21.9895 28.3421 23.2189 27.6907 24.5431 27.3071C25.8672 26.9235 27.2572 26.8156 28.6255 26.9907L28.619 32.4115C28.1683 32.266 27.6971 32.1923 27.2232 32.1927C24.7189 32.1927 22.6892 34.2154 22.6892 36.7132C22.6892 39.2112 24.7189 41.2338 27.2232 41.2338C28.0028 41.2348 28.7693 41.0345 29.4471 40.6527C30.0972 40.2866 30.6468 39.7682 31.0472 39.1424C31.4476 38.5168 31.6866 37.8032 31.7432 37.0646V37.053C31.7465 37.0374 31.7465 37.022 31.7465 37.0071C31.7486 36.971 31.7518 36.94 31.7518 36.9064C31.7635 36.6365 31.7635 36.3634 31.7635 36.0869V15.5H37.1384C37.1299 15.5 37.0738 16.0102 37.2095 16.7987H37.203C37.3653 17.7487 37.8061 19.1056 38.9862 20.4428C39.4578 20.948 39.9891 21.3953 40.5685 21.7746Z" fill="#FFE248"/>
</svg>
