<svg width="487" height="731" viewBox="0 0 487 731" fill="none" xmlns="http://www.w3.org/2000/svg">
<path d="M235.798 246.974C233.758 245.228 230.813 245.043 228.592 246.552C217.487 254.097 199.064 267.168 191.86 274.367C202.775 268.914 226.598 258.665 242.888 260.539C259.177 258.665 283.419 268.914 294.335 274.367C287.114 267.152 268.626 254.039 257.528 246.502C255.343 245.017 252.45 245.171 250.41 246.85L244.831 251.443C243.707 252.368 242.081 252.353 240.975 251.406L235.798 246.974Z" fill="#163530"/>
<path d="M220.333 227.164C218.103 227.164 216.653 224.817 217.651 222.823L223.114 211.904C224.639 208.858 227.753 206.934 231.16 206.934H255.035C258.441 206.934 261.556 208.858 263.08 211.904L268.544 222.823C269.541 224.817 268.091 227.164 265.862 227.164L265.45 227.108C250.479 225.071 235.299 225.09 220.333 227.164Z" fill="#163530"/>
<path fill-rule="evenodd" clip-rule="evenodd" d="M6.27859 372.146C-23.4144 215.7 59.6289 98.9575 100.445 61.9511C127.434 37.4806 169.417 -0.000140003 242.888 3.9222e-10C316.358 -0.000140003 358.761 37.4806 385.75 61.9511C426.566 98.9575 509.609 215.7 479.916 372.146C450.436 527.473 310.943 674.21 242.888 730.221C174.832 674.21 35.7591 527.473 6.27859 372.146ZM168.24 136.128C183.205 114.765 194.925 89.1729 201.388 72.7504C203.588 67.1619 207.682 62.4953 213.071 59.8437C232.005 50.5272 254.19 50.5272 273.124 59.8437C278.512 62.4953 282.607 67.1619 284.806 72.7504C291.27 89.1729 302.989 114.765 317.954 136.128C294.713 133.916 251.871 139.975 263.363 181.286C263.7 182.499 264.804 183.372 266.061 183.431L334.825 186.703C332.576 183.332 319.979 176.588 287.587 176.588C293.21 165.349 313.905 149.615 351.697 176.588C359.57 183.332 373.966 200.19 368.567 213.677L334.825 247.394C348.322 244.022 374.641 246.719 371.942 284.482C369.242 322.245 337.075 356.412 321.329 368.774C319.079 371.022 312.556 372.82 304.458 362.031C294.575 348.864 262.38 323.873 242.888 324.663C221.896 323.873 191.62 348.864 181.737 362.031C173.639 372.82 167.116 371.022 164.866 368.774C149.12 356.412 116.952 322.245 114.253 284.482C111.554 246.719 137.872 244.022 151.369 247.394L117.627 213.677C112.228 200.19 126.625 183.332 134.498 176.588C172.289 149.615 192.984 165.349 198.608 176.588C166.216 176.588 153.619 183.332 151.369 186.703L220.134 183.431C221.391 183.372 222.495 182.499 222.832 181.286C234.324 139.975 191.481 133.916 168.24 136.128ZM321.197 610.063C327.94 608.879 334.687 603.777 335.891 597.038L371.836 395.846C332.1 432.247 304.794 482.48 300.9 536.241L298.106 574.814L266.117 567.047L271.888 427.239C272.739 406.6 261.381 387.388 242.888 378.186C223.682 387.348 211.856 407.147 212.893 428.4L219.658 567.047L187.669 574.814L184.876 536.241C180.982 482.48 156.674 432.247 116.938 395.846L150.026 596.838C151.148 603.657 157.95 608.887 164.753 610.094C175.926 612.075 191.228 616.69 204.287 621.017C221.408 626.691 235.114 639.45 242.888 655.727C250.661 639.45 264.367 626.691 281.489 621.017C294.616 616.667 310.01 612.026 321.197 610.063ZM168.24 51.836C165.991 90.0485 133.823 188.052 23.1495 274.367C56.8915 236.155 118.753 148.941 132.25 105.783C109.756 133.88 52.8425 186.703 50.1431 186.703C46.7689 186.703 104.13 72.0661 168.24 51.836ZM463.045 274.367C352.371 188.052 320.204 90.0485 317.954 51.836C382.064 72.0661 439.426 186.703 436.052 186.703C433.352 186.703 376.439 133.88 353.944 105.783C367.441 148.941 429.303 236.155 463.045 274.367Z" fill="#163530"/>
<path d="M235.528 280.864H248.591C255.806 280.864 261.654 286.712 261.654 293.927C248.964 289.513 235.155 289.513 222.464 293.927C222.464 286.712 228.313 280.864 235.528 280.864Z" fill="#163530"/>
</svg>
